<svg version="1.1" id="Layer_1" xmlns="http://www.w3.org/2000/svg" xmlns:xlink="http://www.w3.org/1999/xlink" x="0px" y="0px"
	 width="100%" viewBox="0 0 800 150" enable-background="new 0 0 800 150" xml:space="preserve">
<path fill="#000000" opacity="1.000000" stroke="none" 
	d="
M586.000000,151.000000 
	C390.717926,151.000000 195.935852,151.000000 1.076890,151.000000 
	C1.076890,101.064514 1.076890,51.128880 1.076890,1.096622 
	C267.666656,1.096622 534.333313,1.096622 800.971680,1.096622 
	C800.971680,51.064106 800.971680,101.032066 800.971680,151.000000 
	C729.462219,151.000000 657.981079,151.000000 586.000000,151.000000 
M176.591003,43.949612 
	C177.046539,43.622932 177.502060,43.296257 177.461914,43.325054 
	C177.369705,43.299755 176.747681,43.129078 176.004486,42.340958 
	C174.251068,40.592026 172.697495,38.561314 170.705566,37.148720 
	C165.418701,33.399521 159.955307,29.864258 152.438705,33.010120 
	C152.610199,33.377300 152.781693,33.744484 152.637817,34.835041 
	C148.190536,33.995453 145.278473,36.325199 142.167908,39.860336 
	C141.090225,41.560375 140.012543,43.260410 139.002701,44.986061 
	C139.002701,44.986061 138.957809,44.929092 138.426987,45.019337 
	C136.988541,45.849449 135.550110,46.679562 134.472702,47.301315 
	C135.311722,48.041832 135.867584,48.532452 136.112381,49.657085 
	C130.088730,56.832317 123.493004,63.547203 122.181053,73.620239 
	C121.480789,78.996826 119.519318,84.204079 118.207756,89.507706 
	C117.148865,93.789597 114.670876,98.468300 115.586777,102.312309 
	C116.900131,107.824425 119.986191,113.412338 123.805199,117.613693 
	C125.643845,119.636421 130.885834,118.615479 134.594040,118.861900 
	C135.901581,118.948799 137.231033,118.705574 138.729736,118.600502 
	C139.443970,115.864807 140.144653,113.181015 140.915466,110.228592 
	C137.807816,109.779068 134.990250,109.371506 131.265610,108.832741 
	C133.308334,107.881332 134.241226,107.446831 135.861343,107.012131 
	C138.178207,106.624413 140.495071,106.236702 142.811935,105.848984 
	C142.788940,105.601410 142.765930,105.353844 142.742920,105.106270 
	C140.883087,104.957718 139.023239,104.809174 137.660248,104.031342 
	C143.810791,99.616653 143.867813,92.562492 144.523880,85.767815 
	C145.308334,85.978386 146.092804,86.188957 146.877274,86.399529 
	C145.862900,91.913322 144.848526,97.427116 143.241074,103.226982 
	C144.063446,103.233826 144.885803,103.240669 146.323975,103.057274 
	C149.329819,101.030411 152.772095,99.416000 155.201935,96.844810 
	C157.110107,94.825630 157.767212,91.624153 159.280212,88.172829 
	C159.913345,88.160820 160.735535,88.405426 161.151657,88.098862 
	C169.247482,82.134628 178.913666,77.609322 181.700226,66.649590 
	C182.022491,65.382103 181.001144,63.772999 180.602737,62.322281 
	C179.171188,62.918396 177.035385,63.118946 176.437561,64.183334 
	C174.489761,67.651154 173.103745,71.434502 172.158783,73.594322 
	C169.533997,74.298141 167.838058,74.545197 166.341843,75.229126 
	C165.388580,75.664864 164.856888,77.194595 163.918167,77.458557 
	C160.965942,78.288673 160.885422,78.145103 160.791290,80.455795 
	C160.703430,82.611931 160.824158,84.783470 160.602463,86.922241 
	C160.549072,87.437416 159.505264,87.849937 158.974701,87.529457 
	C155.384201,80.041702 151.793686,72.553947 148.132690,64.919182 
	C142.025208,65.412827 145.236191,70.724426 143.807724,73.738411 
	C141.592545,73.152176 139.392654,72.569984 138.110168,72.230576 
	C139.692108,70.433075 142.052841,68.886993 142.490112,66.914513 
	C142.879395,65.158554 141.138824,62.930447 140.390518,61.042564 
	C141.071152,59.638771 142.002167,57.718601 143.906845,55.646416 
	C143.906845,58.336498 143.906845,61.026577 143.906845,64.728165 
	C149.545349,61.312050 148.617310,56.525997 150.367645,51.701912 
	C148.208176,52.679504 147.204788,53.133732 145.719559,52.586063 
	C146.910614,50.898083 148.101654,49.210098 149.502045,47.225460 
	C153.010666,47.836716 157.351379,48.969002 161.459442,44.938515 
	C160.142426,44.371319 159.276810,44.022953 158.432922,43.628117 
	C157.614594,43.245243 156.818604,42.814629 155.483765,42.136028 
	C162.606720,41.848602 162.992126,42.114285 163.103500,47.527493 
	C163.405731,47.673668 163.707962,47.819843 164.512268,48.486717 
	C170.997711,50.888489 170.997711,50.888489 173.087204,48.611084 
	C172.995239,48.069927 172.903259,47.528774 172.938797,46.325603 
	C172.957367,45.878716 172.975937,45.431828 173.674301,45.048336 
	C174.122177,44.986195 174.570068,44.924049 175.562256,44.939362 
	C175.749481,44.638012 175.936707,44.336662 176.591003,43.949612 
M713.627747,122.866257 
	C717.994324,115.112556 716.132568,108.735931 709.026489,103.692314 
	C714.042419,100.669937 715.244141,96.533058 713.974060,91.444405 
	C712.757080,86.568436 708.315186,82.261459 703.322449,82.081520 
	C695.054077,81.783531 686.767090,82.000488 678.278320,82.000488 
	C678.278320,97.857025 678.278320,113.231949 678.278320,128.991760 
	C685.675537,128.991760 692.841919,129.463043 699.908447,128.825882 
	C704.610291,128.401962 709.881714,128.070816 713.627747,122.866257 
M559.001343,106.064430 
	C559.001343,107.450424 559.001343,108.836418 559.001343,110.222412 
	C553.960205,103.265594 549.600708,96.243347 545.573303,89.035568 
	C541.117737,81.061646 540.599915,80.694504 531.374146,82.642021 
	C531.374146,98.037613 531.374146,113.420654 531.374146,128.739563 
	C534.689148,128.739563 537.627563,128.739563 540.999756,128.739563 
	C540.999756,123.697731 540.999817,118.906105 540.999817,114.114487 
	C540.999817,109.314972 540.999756,104.515450 540.999756,99.715935 
	C545.526367,105.907143 549.291321,112.048164 552.694153,118.383713 
	C558.646423,129.465958 559.140991,129.893860 568.701538,128.489212 
	C568.701538,113.130707 568.701538,97.747330 568.701538,82.365601 
	C565.344238,82.365601 562.294617,82.365601 559.001343,82.365601 
	C559.001343,90.206848 559.001343,97.685898 559.001343,106.064430 
M490.751465,126.942757 
	C499.538086,131.459473 507.937103,131.837601 515.734131,124.160484 
	C515.950989,125.966660 516.116211,127.342804 516.270569,128.628632 
	C518.655151,128.628632 520.706726,128.628632 522.755554,128.628632 
	C522.755554,119.998047 522.755554,111.740585 522.755554,103.296326 
	C516.459106,103.296326 510.409088,103.296326 504.350464,103.296326 
	C504.350464,106.322220 504.350464,109.042755 504.350464,112.256592 
	C507.735931,112.256592 510.770813,112.256592 513.973816,112.256592 
	C510.166016,121.534584 501.487549,123.691605 494.937042,117.440903 
	C490.498840,113.205841 489.284454,100.680664 492.831024,95.719856 
	C497.470490,89.230385 506.482056,87.614548 510.481049,93.275764 
	C514.151062,98.471222 518.356323,96.834274 523.855103,96.562462 
	C522.098450,93.177025 521.157227,90.105888 519.233582,87.886024 
	C512.858887,80.529472 501.156769,78.621704 492.197571,83.387550 
	C476.936737,91.505554 475.384247,115.682770 490.751465,126.942757 
M363.484589,84.887733 
	C353.854919,79.338120 343.478088,83.220367 333.266785,81.841553 
	C333.266785,97.874733 333.266785,113.239197 333.266785,128.993561 
	C339.976837,128.993561 346.468323,129.432526 352.861603,128.830002 
	C356.737854,128.464722 360.936646,127.214104 364.168457,125.102821 
	C375.126465,117.944122 374.771729,93.050194 363.484589,84.887733 
M450.502106,96.998428 
	C451.943909,96.916916 453.385681,96.835403 454.790070,96.755997 
	C454.995880,90.243599 453.487488,86.921402 448.544495,84.114998 
	C441.043762,79.856422 433.004730,79.825233 425.493896,83.444016 
	C419.431122,86.365105 418.083893,92.372849 419.017029,98.779572 
	C419.725677,103.645065 422.818085,106.100853 427.456970,107.155884 
	C432.514435,108.306129 437.570496,109.529709 442.520264,111.065720 
	C446.553192,112.317215 447.854858,116.326668 445.437958,119.009499 
	C442.071625,122.746208 432.466125,122.846313 430.178833,118.362000 
	C427.128571,112.381958 422.726074,114.079033 418.218903,114.337921 
	C417.974213,120.722466 422.367401,128.045471 427.935150,128.763977 
	C434.167877,129.568298 440.649872,129.515823 446.899445,128.781357 
	C452.092346,128.171066 457.440674,119.658310 456.972778,114.443634 
	C456.342621,107.419579 452.248505,103.210510 445.254944,101.953209 
	C441.106079,101.207329 436.973267,100.223526 432.960388,98.947006 
	C431.469482,98.472725 429.503174,97.006798 429.276154,95.723747 
	C429.035065,94.360825 430.257660,92.310341 431.442932,91.206146 
	C434.672455,88.197525 442.792450,89.673386 444.156403,93.760139 
	C445.220459,96.948387 446.992432,97.263626 450.502106,96.998428 
M410.971985,107.301605 
	C410.971985,105.018913 410.971985,102.736214 410.971985,99.919708 
	C403.444336,99.919708 396.377045,99.919708 389.377869,99.919708 
	C389.377869,96.649773 389.377869,93.933037 389.377869,90.854736 
	C397.354828,90.854736 404.959625,90.854736 412.677826,90.854736 
	C412.677826,87.756767 412.677826,85.041580 412.677826,82.384872 
	C401.301270,82.384872 390.250519,82.384872 379.266327,82.384872 
	C379.266327,98.033485 379.266327,113.297546 379.266327,128.675064 
	C390.920746,128.675064 402.307129,128.675064 413.608948,128.675064 
	C413.608948,125.617676 413.608948,122.904594 413.608948,119.831116 
	C405.285522,119.831116 397.349884,119.831116 389.334747,119.831116 
	C389.334747,116.065750 389.334747,112.682785 389.334747,108.999306 
	C391.476410,108.999306 393.288635,109.064072 395.094788,108.987045 
	C400.342773,108.763245 405.588318,108.482597 410.971985,107.301605 
M670.965820,128.999985 
	C675.010681,129.396393 673.079102,126.658249 672.629700,125.334061 
	C668.549316,113.309471 664.267761,101.353363 660.139832,89.344612 
	C657.566956,81.859650 657.639709,81.967476 649.794189,81.930855 
	C646.997864,81.917809 645.688354,82.780098 644.936401,85.501518 
	C643.809021,89.581581 642.219116,93.534370 640.813660,97.537025 
	C637.187012,107.866081 633.553650,118.192787 629.810791,128.839447 
	C633.888794,128.839447 637.190186,128.839447 640.434570,128.839447 
	C643.873657,118.992905 643.873657,118.992928 654.256470,118.999268 
	C654.922852,118.999680 655.600403,119.078064 656.253723,118.985901 
	C659.046753,118.591927 660.668213,119.711594 661.005676,122.553642 
	C661.661194,128.074646 664.798401,130.078583 670.965820,128.999985 
M606.000000,89.571907 
	C606.000000,87.140022 606.000000,84.708138 606.000000,82.404015 
	C602.265930,82.404015 599.217957,82.404015 596.282593,82.404015 
	C596.282593,98.070351 596.282593,113.333138 596.282593,128.665436 
	C606.956177,128.665436 617.344299,128.665436 627.596924,128.665436 
	C627.596924,125.595772 627.596924,122.881874 627.596924,119.806686 
	C620.261597,119.806686 613.326721,119.806686 606.000000,119.806686 
	C606.000000,109.807167 606.000000,100.179489 606.000000,89.571907 
M466.623688,128.999374 
	C469.037140,128.999374 471.450562,128.999374 473.746307,128.999374 
	C473.746307,112.975342 473.746307,97.713058 473.746307,82.317963 
	C470.102417,82.317963 466.720428,82.317963 463.008667,82.317963 
	C463.008667,97.257065 462.964630,111.883591 463.122864,126.507935 
	C463.131958,127.346542 464.791229,128.167297 466.623688,128.999374 
z"/>
<path fill="#FAFAFA" opacity="1.000000" stroke="none" 
	d="
M135.174118,107.012344 
	C134.241226,107.446831 133.308334,107.881332 131.265610,108.832741 
	C134.990250,109.371506 137.807816,109.779068 140.915466,110.228592 
	C140.144653,113.181015 139.443970,115.864807 138.729736,118.600502 
	C137.231033,118.705574 135.901581,118.948799 134.594040,118.861900 
	C130.885834,118.615479 125.643845,119.636421 123.805199,117.613693 
	C119.986191,113.412338 116.900131,107.824425 115.586777,102.312309 
	C114.670876,98.468300 117.148865,93.789597 118.207756,89.507706 
	C119.519318,84.204079 121.480789,78.996826 122.181053,73.620239 
	C123.493004,63.547203 130.088730,56.832317 136.578857,49.265015 
	C137.682816,47.558327 138.320312,46.243710 138.957809,44.929092 
	C138.957809,44.929092 139.002701,44.986061 139.350250,44.996624 
	C140.797913,44.338612 141.898010,43.670036 142.999054,43.000732 
	C143.000000,43.000000 143.001495,42.998005 143.259644,42.804893 
	C143.285126,41.604813 143.052444,40.597843 142.819763,39.590874 
	C145.278473,36.325199 148.190536,33.995453 152.814209,34.152302 
	C152.987289,33.255196 152.983994,33.040825 152.980682,32.826458 
	C159.955307,29.864258 165.418701,33.399521 170.705566,37.148720 
	C172.697495,38.561314 174.251068,40.592026 175.655731,42.664253 
	C174.488953,43.029202 173.670929,43.070850 172.653137,43.201286 
	C172.642731,43.568729 172.832062,43.847385 172.998199,44.340248 
	C172.975021,44.554459 172.994522,44.984940 172.994522,44.984940 
	C172.975937,45.431828 172.957367,45.878716 172.572601,46.721004 
	C172.545746,47.786812 172.885101,48.457218 173.224472,49.127625 
	C170.997711,50.888489 170.997711,50.888489 164.192307,48.028397 
	C163.737167,47.311741 163.536163,47.123802 163.269348,47.006256 
	C162.992126,42.114285 162.606720,41.848602 155.483765,42.136028 
	C156.818604,42.814629 157.614594,43.245243 158.432922,43.628117 
	C159.276810,44.022953 160.142426,44.371319 161.459442,44.938515 
	C157.351379,48.969002 153.010666,47.836716 149.502045,47.225460 
	C148.101654,49.210098 146.910614,50.898083 146.000519,53.056961 
	C145.940460,53.530903 145.693954,53.668911 145.699554,53.500595 
	C144.626404,52.538460 143.395660,52.017616 141.589340,51.253201 
	C142.281052,52.757465 142.611832,53.476849 142.901550,54.462173 
	C142.884705,55.084885 142.908936,55.441654 142.933167,55.798428 
	C142.002167,57.718601 141.071152,59.638771 140.390518,61.042564 
	C141.138824,62.930447 142.879395,65.158554 142.490112,66.914513 
	C142.052841,68.886993 139.692108,70.433075 138.110168,72.230576 
	C139.392654,72.569984 141.592545,73.152176 143.807724,73.738411 
	C145.236191,70.724426 142.025208,65.412827 148.132690,64.919182 
	C151.793686,72.553947 155.384201,80.041702 158.944061,88.080856 
	C158.913422,88.632248 158.980087,88.947899 158.980087,88.947899 
	C157.767212,91.624153 157.110107,94.825630 155.201935,96.844810 
	C152.772095,99.416000 149.329819,101.030411 145.548859,103.067085 
	C144.460541,103.031563 144.147339,102.986237 143.834152,102.940918 
	C144.848526,97.427116 145.862900,91.913322 146.877274,86.399529 
	C146.092804,86.188957 145.308334,85.978386 144.523880,85.767815 
	C143.867813,92.562492 143.810791,99.616653 137.156158,104.421211 
	C136.159424,105.544838 135.666779,106.278595 135.174118,107.012344 
M143.175583,80.817062 
	C144.033432,80.623116 144.891296,80.429169 145.749146,80.235214 
	C145.419418,78.908501 145.089706,77.581779 144.759979,76.255066 
	C144.314880,76.317368 143.869766,76.379677 143.424652,76.441986 
	C143.294128,77.656395 143.163620,78.870796 143.175583,80.817062 
M148.970551,42.012657 
	C149.560455,41.239491 150.150360,40.466324 150.740265,39.693157 
	C150.429733,39.374954 150.119217,39.056755 149.808701,38.738552 
	C148.087296,39.864742 146.365906,40.990932 144.644516,42.117126 
	C144.873901,42.382034 145.103302,42.646946 145.332703,42.911858 
	C146.385239,42.730835 147.437775,42.549812 148.970551,42.012657 
M160.542908,35.093151 
	C159.864670,35.788937 159.186432,36.484718 158.508209,37.180508 
	C159.204605,37.418877 159.900986,37.657246 160.597382,37.895615 
	C160.802780,37.032436 161.008179,36.169258 160.542908,35.093151 
M156.219910,36.730141 
	C156.181595,35.908028 156.143280,35.085915 156.104950,34.263805 
	C155.520538,34.410267 154.936111,34.556728 154.351700,34.703190 
	C154.739899,35.429855 155.128113,36.156521 156.219910,36.730141 
M166.564484,40.673855 
	C166.846786,40.144215 167.129105,39.614574 167.411423,39.084938 
	C166.858643,38.864830 166.305878,38.644722 165.753098,38.424614 
	C165.843384,39.082970 165.933670,39.741329 166.564484,40.673855 
M153.451859,40.524841 
	C153.196365,40.462452 152.940872,40.400063 152.685379,40.337669 
	C152.850372,40.494987 153.015366,40.652302 153.451859,40.524841 
M160.523010,39.381104 
	C160.523010,39.381104 160.426254,39.548130 160.426254,39.548130 
	C160.426254,39.548130 160.618896,39.525208 160.523010,39.381104 
z"/>
<path fill="#8B8B8B" opacity="1.000000" stroke="none" 
	d="
M713.349731,123.134056 
	C709.881714,128.070816 704.610291,128.401962 699.908447,128.825882 
	C692.841919,129.463043 685.675537,128.991760 678.278320,128.991760 
	C678.278320,113.231949 678.278320,97.857025 678.278320,82.000488 
	C686.767090,82.000488 695.054077,81.783531 703.322449,82.081520 
	C708.315186,82.261459 712.757080,86.568436 713.974060,91.444405 
	C715.244141,96.533058 714.042419,100.669937 709.026489,103.692314 
	C716.132568,108.735931 717.994324,115.112556 713.349731,123.134056 
M688.999207,116.379120 
	C688.808289,118.578835 689.009033,120.291664 692.013306,120.041977 
	C694.641296,119.823570 697.307922,120.109100 699.946167,119.965210 
	C703.309509,119.781769 705.741943,117.801842 705.817383,114.577965 
	C705.894287,111.293236 703.425903,109.261429 700.102966,109.060272 
	C696.531738,108.844093 692.937317,109.011467 688.999023,109.011467 
	C688.999023,111.528954 688.999023,113.484024 688.999207,116.379120 
M688.999268,96.429886 
	C688.760010,98.712677 689.142578,100.291344 692.084290,100.043282 
	C694.722412,99.820824 697.578979,100.566666 699.986572,99.790993 
	C701.641602,99.257782 703.566406,96.940178 703.732544,95.258354 
	C703.859314,93.975159 701.585266,91.471397 700.082214,91.208443 
	C696.591370,90.597725 692.920837,91.013969 688.999023,91.013969 
	C688.999023,92.895271 688.999023,94.197556 688.999268,96.429886 
z"/>
<path fill="#8B8B8B" opacity="1.000000" stroke="none" 
	d="
M559.001343,105.614685 
	C559.001343,97.685898 559.001343,90.206848 559.001343,82.365601 
	C562.294617,82.365601 565.344238,82.365601 568.701538,82.365601 
	C568.701538,97.747330 568.701538,113.130707 568.701538,128.489212 
	C559.140991,129.893860 558.646423,129.465958 552.694153,118.383713 
	C549.291321,112.048164 545.526367,105.907143 540.999756,99.715935 
	C540.999756,104.515450 540.999817,109.314972 540.999817,114.114487 
	C540.999817,118.906105 540.999756,123.697731 540.999756,128.739563 
	C537.627563,128.739563 534.689148,128.739563 531.374146,128.739563 
	C531.374146,113.420654 531.374146,98.037613 531.374146,82.642021 
	C540.599915,80.694504 541.117737,81.061646 545.573303,89.035568 
	C549.600708,96.243347 553.960205,103.265594 559.001343,110.222412 
	C559.001343,108.836418 559.001343,107.450424 559.001343,105.614685 
z"/>
<path fill="#8B8B8B" opacity="1.000000" stroke="none" 
	d="
M490.421509,126.750854 
	C475.384247,115.682770 476.936737,91.505554 492.197571,83.387550 
	C501.156769,78.621704 512.858887,80.529472 519.233582,87.886024 
	C521.157227,90.105888 522.098450,93.177025 523.855103,96.562462 
	C518.356323,96.834274 514.151062,98.471222 510.481049,93.275764 
	C506.482056,87.614548 497.470490,89.230385 492.831024,95.719856 
	C489.284454,100.680664 490.498840,113.205841 494.937042,117.440903 
	C501.487549,123.691605 510.166016,121.534584 513.973816,112.256592 
	C510.770813,112.256592 507.735931,112.256592 504.350464,112.256592 
	C504.350464,109.042755 504.350464,106.322220 504.350464,103.296326 
	C510.409088,103.296326 516.459106,103.296326 522.755554,103.296326 
	C522.755554,111.740585 522.755554,119.998047 522.755554,128.628632 
	C520.706726,128.628632 518.655151,128.628632 516.270569,128.628632 
	C516.116211,127.342804 515.950989,125.966660 515.734131,124.160484 
	C507.937103,131.837601 499.538086,131.459473 490.421509,126.750854 
z"/>
<path fill="#8B8B8B" opacity="1.000000" stroke="none" 
	d="
M363.858673,84.971291 
	C374.771729,93.050194 375.126465,117.944122 364.168457,125.102821 
	C360.936646,127.214104 356.737854,128.464722 352.861603,128.830002 
	C346.468323,129.432526 339.976837,128.993561 333.266785,128.993561 
	C333.266785,113.239197 333.266785,97.874733 333.266785,81.841553 
	C343.478088,83.220367 353.854919,79.338120 363.858673,84.971291 
M359.100586,115.531090 
	C362.799622,109.668983 362.544342,103.395721 360.559998,97.171913 
	C358.755341,91.511650 352.554413,89.616661 344.379883,91.713211 
	C344.379883,101.115768 344.379883,110.477249 344.379883,119.834061 
	C349.858002,120.166748 355.009796,120.716820 359.100586,115.531090 
z"/>
<path fill="#8B8B8B" opacity="1.000000" stroke="none" 
	d="
M450.052612,96.998428 
	C446.992432,97.263626 445.220459,96.948387 444.156403,93.760139 
	C442.792450,89.673386 434.672455,88.197525 431.442932,91.206146 
	C430.257660,92.310341 429.035065,94.360825 429.276154,95.723747 
	C429.503174,97.006798 431.469482,98.472725 432.960388,98.947006 
	C436.973267,100.223526 441.106079,101.207329 445.254944,101.953209 
	C452.248505,103.210510 456.342621,107.419579 456.972778,114.443634 
	C457.440674,119.658310 452.092346,128.171066 446.899445,128.781357 
	C440.649872,129.515823 434.167877,129.568298 427.935150,128.763977 
	C422.367401,128.045471 417.974213,120.722466 418.218903,114.337921 
	C422.726074,114.079033 427.128571,112.381958 430.178833,118.362000 
	C432.466125,122.846313 442.071625,122.746208 445.437958,119.009499 
	C447.854858,116.326668 446.553192,112.317215 442.520264,111.065720 
	C437.570496,109.529709 432.514435,108.306129 427.456970,107.155884 
	C422.818085,106.100853 419.725677,103.645065 419.017029,98.779572 
	C418.083893,92.372849 419.431122,86.365105 425.493896,83.444016 
	C433.004730,79.825233 441.043762,79.856422 448.544495,84.114998 
	C453.487488,86.921402 454.995880,90.243599 454.790070,96.755997 
	C453.385681,96.835403 451.943909,96.916916 450.052612,96.998428 
z"/>
<path fill="#8B8B8B" opacity="1.000000" stroke="none" 
	d="
M410.903412,107.762924 
	C405.588318,108.482597 400.342773,108.763245 395.094788,108.987045 
	C393.288635,109.064072 391.476410,108.999306 389.334747,108.999306 
	C389.334747,112.682785 389.334747,116.065750 389.334747,119.831116 
	C397.349884,119.831116 405.285522,119.831116 413.608948,119.831116 
	C413.608948,122.904594 413.608948,125.617676 413.608948,128.675064 
	C402.307129,128.675064 390.920746,128.675064 379.266327,128.675064 
	C379.266327,113.297546 379.266327,98.033485 379.266327,82.384872 
	C390.250519,82.384872 401.301270,82.384872 412.677826,82.384872 
	C412.677826,85.041580 412.677826,87.756767 412.677826,90.854736 
	C404.959625,90.854736 397.354828,90.854736 389.377869,90.854736 
	C389.377869,93.933037 389.377869,96.649773 389.377869,99.919708 
	C396.377045,99.919708 403.444336,99.919708 410.971985,99.919708 
	C410.971985,102.736214 410.971985,105.018913 410.903412,107.762924 
z"/>
<path fill="#8B8B8B" opacity="1.000000" stroke="none" 
	d="
M670.542419,129.000214 
	C664.798401,130.078583 661.661194,128.074646 661.005676,122.553642 
	C660.668213,119.711594 659.046753,118.591927 656.253723,118.985901 
	C655.600403,119.078064 654.922852,118.999680 654.256470,118.999268 
	C643.873657,118.992928 643.873657,118.992905 640.434570,128.839447 
	C637.190186,128.839447 633.888794,128.839447 629.810791,128.839447 
	C633.553650,118.192787 637.187012,107.866081 640.813660,97.537025 
	C642.219116,93.534370 643.809021,89.581581 644.936401,85.501518 
	C645.688354,82.780098 646.997864,81.917809 649.794189,81.930855 
	C657.639709,81.967476 657.566956,81.859650 660.139832,89.344612 
	C664.267761,101.353363 668.549316,113.309471 672.629700,125.334061 
	C673.079102,126.658249 675.010681,129.396393 670.542419,129.000214 
M655.096985,105.318764 
	C654.126770,102.283508 653.156555,99.248253 651.802612,95.012650 
	C649.842163,101.042152 648.318237,105.729103 646.735291,110.597458 
	C650.457825,110.597458 653.625244,110.597458 656.969360,110.597458 
	C656.394592,108.788826 655.954163,107.402718 655.096985,105.318764 
z"/>
<path fill="#8B8B8B" opacity="1.000000" stroke="none" 
	d="
M606.000000,90.061859 
	C606.000000,100.179489 606.000000,109.807167 606.000000,119.806686 
	C613.326721,119.806686 620.261597,119.806686 627.596924,119.806686 
	C627.596924,122.881874 627.596924,125.595772 627.596924,128.665436 
	C617.344299,128.665436 606.956177,128.665436 596.282593,128.665436 
	C596.282593,113.333138 596.282593,98.070351 596.282593,82.404015 
	C599.217957,82.404015 602.265930,82.404015 606.000000,82.404015 
	C606.000000,84.708138 606.000000,87.140022 606.000000,90.061859 
z"/>
<path fill="#8B8B8B" opacity="1.000000" stroke="none" 
	d="
M466.153107,128.997864 
	C464.791229,128.167297 463.131958,127.346542 463.122864,126.507935 
	C462.964630,111.883591 463.008667,97.257065 463.008667,82.317963 
	C466.720428,82.317963 470.102417,82.317963 473.746307,82.317963 
	C473.746307,97.713058 473.746307,112.975342 473.746307,128.999374 
	C471.450562,128.999374 469.037140,128.999374 466.153107,128.997864 
z"/>
<path fill="#F2F2F2" opacity="1.000000" stroke="none" 
	d="
M159.130157,88.560364 
	C158.980087,88.947899 158.913422,88.632248 158.915176,88.470955 
	C159.505264,87.849937 160.549072,87.437416 160.602463,86.922241 
	C160.824158,84.783470 160.703430,82.611931 160.791290,80.455795 
	C160.885422,78.145103 160.965942,78.288673 163.918167,77.458557 
	C164.856888,77.194595 165.388580,75.664864 166.341843,75.229126 
	C167.838058,74.545197 169.533997,74.298141 172.158783,73.594322 
	C173.103745,71.434502 174.489761,67.651154 176.437561,64.183334 
	C177.035385,63.118946 179.171188,62.918396 180.602737,62.322281 
	C181.001144,63.772999 182.022491,65.382103 181.700226,66.649590 
	C178.913666,77.609322 169.247482,82.134628 161.151657,88.098862 
	C160.735535,88.405426 159.913345,88.160820 159.130157,88.560364 
z"/>
<path fill="#E9E9E9" opacity="1.000000" stroke="none" 
	d="
M143.420013,55.722420 
	C142.908936,55.441654 142.884705,55.084885 143.283417,54.957108 
	C144.318237,54.771366 144.930084,54.356625 145.541946,53.941883 
	C145.693954,53.668911 145.940460,53.530903 146.241455,53.557907 
	C147.204788,53.133732 148.208176,52.679504 150.367645,51.701912 
	C148.617310,56.525997 149.545349,61.312050 143.906845,64.728165 
	C143.906845,61.026577 143.906845,58.336498 143.420013,55.722420 
z"/>
<path fill="#ECECEC" opacity="1.000000" stroke="none" 
	d="
M138.692398,44.974213 
	C138.320312,46.243710 137.682816,47.558327 136.734390,48.948009 
	C135.867584,48.532452 135.311722,48.041832 134.472702,47.301315 
	C135.550110,46.679562 136.988541,45.849449 138.692398,44.974213 
z"/>
<path fill="#ECECEC" opacity="1.000000" stroke="none" 
	d="
M142.998108,43.001457 
	C141.898010,43.670036 140.797913,44.338612 139.316345,44.983818 
	C140.012543,43.260410 141.090225,41.560375 142.493835,39.725605 
	C143.052444,40.597843 143.285126,41.604813 143.203751,42.673416 
	C142.811218,42.684399 142.732742,42.633743 142.654266,42.583088 
	C142.768875,42.722542 142.883499,42.862000 142.998108,43.001457 
z"/>
<path fill="#0E0E0E" opacity="1.000000" stroke="none" 
	d="
M135.517731,107.012238 
	C135.666779,106.278595 136.159424,105.544838 136.907745,104.735855 
	C139.023239,104.809174 140.883087,104.957718 142.742920,105.106270 
	C142.765930,105.353844 142.788940,105.601410 142.811935,105.848984 
	C140.495071,106.236702 138.178207,106.624413 135.517731,107.012238 
z"/>
<path fill="#ECECEC" opacity="1.000000" stroke="none" 
	d="
M172.852890,43.112499 
	C173.670929,43.070850 174.488953,43.029202 175.716339,42.972977 
	C176.747681,43.129078 177.369705,43.299755 177.461914,43.325054 
	C177.502060,43.296257 177.046539,43.622932 176.135223,44.076855 
	C175.375061,44.339020 175.154572,44.558289 175.017944,44.861904 
	C174.570068,44.924049 174.122177,44.986195 173.334412,45.016640 
	C172.994522,44.984940 172.975021,44.554459 172.959717,44.085587 
	C172.913925,43.448647 172.883408,43.280571 172.852890,43.112499 
z"/>
<path fill="#ECECEC" opacity="1.000000" stroke="none" 
	d="
M173.155838,48.869354 
	C172.885101,48.457218 172.545746,47.786812 172.508835,47.052010 
	C172.903259,47.528774 172.995239,48.069927 173.155838,48.869354 
z"/>
<path fill="#F7F7F7" opacity="1.000000" stroke="none" 
	d="
M143.537613,103.083954 
	C144.147339,102.986237 144.460541,103.031563 145.240967,103.162209 
	C144.885803,103.240669 144.063446,103.233826 143.537613,103.083954 
z"/>
<path fill="#FAFAFA" opacity="1.000000" stroke="none" 
	d="
M175.290100,44.900635 
	C175.154572,44.558289 175.375061,44.339020 175.901672,44.119705 
	C175.936707,44.336662 175.749481,44.638012 175.290100,44.900635 
z"/>
<path fill="#ECECEC" opacity="1.000000" stroke="none" 
	d="
M163.186432,47.266876 
	C163.536163,47.123802 163.737167,47.311741 163.941269,47.768047 
	C163.707962,47.819843 163.405731,47.673668 163.186432,47.266876 
z"/>
<path fill="#ECECEC" opacity="1.000000" stroke="none" 
	d="
M152.709686,32.918289 
	C152.983994,33.040825 152.987289,33.255196 152.971893,33.790611 
	C152.781693,33.744484 152.610199,33.377300 152.709686,32.918289 
z"/>
<path fill="#F7F7F7" opacity="1.000000" stroke="none" 
	d="
M143.104340,80.451134 
	C143.163620,78.870796 143.294128,77.656395 143.424652,76.441986 
	C143.869766,76.379677 144.314880,76.317368 144.759979,76.255066 
	C145.089706,77.581779 145.419418,78.908501 145.749146,80.235214 
	C144.891296,80.429169 144.033432,80.623116 143.104340,80.451134 
z"/>
<path fill="#ECECEC" opacity="1.000000" stroke="none" 
	d="
M148.730438,42.190723 
	C147.437775,42.549812 146.385239,42.730835 145.332703,42.911858 
	C145.103302,42.646946 144.873901,42.382034 144.644516,42.117126 
	C146.365906,40.990932 148.087296,39.864742 149.808701,38.738552 
	C150.119217,39.056755 150.429733,39.374954 150.740265,39.693157 
	C150.150360,40.466324 149.560455,41.239491 148.730438,42.190723 
z"/>
<path fill="#ECECEC" opacity="1.000000" stroke="none" 
	d="
M160.878235,35.199615 
	C161.008179,36.169258 160.802780,37.032436 160.597382,37.895615 
	C159.900986,37.657246 159.204605,37.418877 158.508209,37.180504 
	C159.186432,36.484718 159.864670,35.788937 160.878235,35.199615 
z"/>
<path fill="#ECECEC" opacity="1.000000" stroke="none" 
	d="
M155.868103,36.806664 
	C155.128113,36.156521 154.739899,35.429855 154.351700,34.703194 
	C154.936111,34.556728 155.520538,34.410267 156.104950,34.263802 
	C156.143280,35.085915 156.181595,35.908028 155.868103,36.806664 
z"/>
<path fill="#ECECEC" opacity="1.000000" stroke="none" 
	d="
M166.294220,40.536770 
	C165.933670,39.741329 165.843384,39.082970 165.753098,38.424614 
	C166.305878,38.644722 166.858643,38.864830 167.411423,39.084938 
	C167.129105,39.614574 166.846786,40.144215 166.294220,40.536770 
z"/>
<path fill="#000000" opacity="1.000000" stroke="none" 
	d="
M145.699554,53.500595 
	C144.930084,54.356625 144.318237,54.771366 143.324493,54.691170 
	C142.611832,53.476849 142.281052,52.757465 141.589340,51.253201 
	C143.395660,52.017616 144.626404,52.538460 145.699554,53.500595 
z"/>
<path fill="#ECECEC" opacity="1.000000" stroke="none" 
	d="
M153.316101,40.667229 
	C153.015366,40.652302 152.850372,40.494987 152.685379,40.337669 
	C152.940872,40.400063 153.196365,40.462452 153.316101,40.667229 
z"/>
<path fill="#ECECEC" opacity="1.000000" stroke="none" 
	d="
M160.570953,39.453156 
	C160.618896,39.525208 160.426254,39.548130 160.426254,39.548130 
	C160.426254,39.548130 160.523010,39.381104 160.570953,39.453156 
z"/>
<path fill="#BBBBBB" opacity="1.000000" stroke="none" 
	d="
M172.653137,43.201286 
	C172.883408,43.280571 172.913925,43.448647 172.982910,43.871380 
	C172.832062,43.847385 172.642731,43.568729 172.653137,43.201286 
z"/>
<path fill="#000000" opacity="1.000000" stroke="none" 
	d="
M688.999146,115.909103 
	C688.999023,113.484024 688.999023,111.528954 688.999023,109.011467 
	C692.937317,109.011467 696.531738,108.844093 700.102966,109.060272 
	C703.425903,109.261429 705.894287,111.293236 705.817383,114.577965 
	C705.741943,117.801842 703.309509,119.781769 699.946167,119.965210 
	C697.307922,120.109100 694.641296,119.823570 692.013306,120.041977 
	C689.009033,120.291664 688.808289,118.578835 688.999146,115.909103 
z"/>
<path fill="#000000" opacity="1.000000" stroke="none" 
	d="
M688.999146,95.964859 
	C688.999023,94.197556 688.999023,92.895271 688.999023,91.013969 
	C692.920837,91.013969 696.591370,90.597725 700.082214,91.208443 
	C701.585266,91.471397 703.859314,93.975159 703.732544,95.258354 
	C703.566406,96.940178 701.641602,99.257782 699.986572,99.790993 
	C697.578979,100.566666 694.722412,99.820824 692.084290,100.043282 
	C689.142578,100.291344 688.760010,98.712677 688.999146,95.964859 
z"/>
<path fill="#000000" opacity="1.000000" stroke="none" 
	d="
M359.013855,115.916550 
	C355.009796,120.716820 349.858002,120.166748 344.379883,119.834061 
	C344.379883,110.477249 344.379883,101.115768 344.379883,91.713211 
	C352.554413,89.616661 358.755341,91.511650 360.559998,97.171913 
	C362.544342,103.395721 362.799622,109.668983 359.013855,115.916550 
z"/>
<path fill="#000000" opacity="1.000000" stroke="none" 
	d="
M655.305298,105.667679 
	C655.954163,107.402718 656.394592,108.788826 656.969360,110.597458 
	C653.625244,110.597458 650.457825,110.597458 646.735291,110.597458 
	C648.318237,105.729103 649.842163,101.042152 651.802612,95.012650 
	C653.156555,99.248253 654.126770,102.283508 655.305298,105.667679 
z"/>
<path fill="#FAFAFA" opacity="1.000000" stroke="none" 
	d="
M142.999054,43.000729 
	C142.883499,42.862000 142.768875,42.722542 142.654266,42.583088 
	C142.732742,42.633743 142.811218,42.684399 142.945587,42.866531 
	C143.001495,42.998005 143.000000,43.000000 142.999054,43.000729 
z"/>
</svg>