<svg version="1.1" id="Layer_1" xmlns="http://www.w3.org/2000/svg" xmlns:xlink="http://www.w3.org/1999/xlink" x="0px" y="0px"
	 width="100%" viewBox="0 0 2520 704" enable-background="new 0 0 2520 704" xml:space="preserve">
<path fill="#000000" opacity="1.000000" stroke="none" 
	d="
M2090.000000,705.000000 
	C1393.333496,705.000000 697.166931,705.000000 1.000280,705.000000 
	C1.000187,470.333496 1.000187,235.666992 1.000093,1.000375 
	C840.999695,1.000250 1680.999390,1.000250 2520.999268,1.000125 
	C2520.999512,235.666306 2520.999512,470.332611 2520.999756,704.999451 
	C2377.500000,705.000000 2234.000000,705.000000 2090.000000,705.000000 
M2164.500000,440.003387 
	C2236.913818,440.003387 2309.327637,440.003387 2381.634766,440.003387 
	C2381.634766,371.314972 2381.634766,303.264801 2381.634766,235.322693 
	C2025.598633,235.322693 1669.917480,235.322693 1314.342407,235.322693 
	C1314.342407,303.702576 1314.342407,371.756226 1314.342407,440.003387 
	C1597.626099,440.003387 1880.563110,440.003387 2164.500000,440.003387 
z"/>
<path fill="#CEB891" opacity="1.000000" stroke="none" 
	d="
M2164.000000,440.003387 
	C1880.563110,440.003387 1597.626099,440.003387 1314.342407,440.003387 
	C1314.342407,371.756226 1314.342407,303.702576 1314.342407,235.322693 
	C1669.917480,235.322693 2025.598633,235.322693 2381.634766,235.322693 
	C2381.634766,303.264801 2381.634766,371.314972 2381.634766,440.003387 
	C2309.327637,440.003387 2236.913818,440.003387 2164.000000,440.003387 
M1590.036133,316.441010 
	C1590.036133,306.827454 1590.036133,297.213898 1590.036133,287.693695 
	C1580.243408,286.162445 1580.241455,286.161896 1577.754150,294.558014 
	C1577.471069,295.513306 1577.252563,296.488098 1576.957764,297.439453 
	C1574.865601,304.191925 1572.761475,310.940704 1570.661011,317.690613 
	C1567.433350,309.981689 1565.191895,302.356537 1562.820312,294.772125 
	C1560.290039,286.680084 1560.236084,286.692657 1551.697144,287.247192 
	C1551.423584,287.264954 1551.168213,287.562286 1550.708984,287.852905 
	C1550.708984,300.014496 1550.708984,312.284119 1550.708984,324.596252 
	C1552.630371,324.596252 1554.322266,324.596252 1556.288696,324.596252 
	C1556.288696,314.826263 1556.288696,305.429810 1556.288696,296.033356 
	C1556.607544,295.955017 1556.926270,295.876709 1557.245117,295.798370 
	C1560.284546,305.581085 1563.323975,315.363800 1566.270264,324.846802 
	C1569.172363,324.846802 1571.323486,324.846802 1573.684937,324.846802 
	C1576.900879,314.451508 1580.100220,304.109467 1583.299683,293.767426 
	C1583.587524,293.819244 1583.875244,293.871063 1584.163086,293.922882 
	C1584.163086,304.186615 1584.163086,314.450348 1584.163086,325.003784 
	C1586.291260,324.909698 1588.020752,324.833221 1590.036133,324.744110 
	C1590.036133,322.033844 1590.036133,319.725708 1590.036133,316.441010 
M1523.991333,295.707092 
	C1523.991333,305.322052 1523.991333,314.936981 1523.991333,324.614746 
	C1526.351318,324.614746 1528.216309,324.614746 1529.941406,324.614746 
	C1529.941406,312.003998 1529.941406,299.755432 1529.941406,287.552765 
	C1520.366943,286.372498 1520.434326,286.392303 1517.990723,294.712769 
	C1515.725708,302.424927 1513.295288,310.088531 1510.527466,319.110352 
	C1506.950928,307.491241 1503.805176,297.271881 1500.763794,287.391296 
	C1497.073730,287.391296 1494.139404,287.391296 1491.117432,287.391296 
	C1491.117432,300.069458 1491.117432,312.452606 1491.117432,325.065948 
	C1493.047607,324.917358 1494.619141,324.796356 1496.781372,324.629883 
	C1496.781372,315.032318 1496.781372,305.765533 1496.781372,296.498749 
	C1497.104370,296.474182 1497.427368,296.449585 1497.750366,296.425018 
	C1500.642944,305.854095 1503.535645,315.283142 1506.458862,324.812073 
	C1508.925781,324.812073 1511.228394,324.812073 1513.850464,324.812073 
	C1514.512207,322.852661 1515.198486,320.842010 1515.870483,318.826569 
	C1518.515747,310.892242 1521.156616,302.956451 1523.991333,295.707092 
M2064.340332,384.308105 
	C2064.766113,386.201294 2065.191895,388.094482 2065.606445,389.937805 
	C2068.562012,389.937805 2071.171387,389.937805 2073.938232,389.937805 
	C2076.222412,377.530426 2078.465332,365.347137 2080.757080,352.898071 
	C2078.603271,352.898071 2077.007324,352.898071 2075.314941,352.898071 
	C2073.657715,362.487366 2072.042725,371.833344 2070.427734,381.179321 
	C2067.832764,373.987518 2066.274170,366.908997 2064.954102,359.786285 
	C2063.494629,351.910706 2063.023926,351.523865 2054.765625,353.346039 
	C2052.742432,362.978363 2050.700439,372.700562 2048.658447,382.422791 
	C2048.447266,382.443176 2048.236328,382.463593 2048.025146,382.483978 
	C2046.337646,372.587158 2044.650146,362.690338 2042.979126,352.890564 
	C2040.736328,352.890564 2038.963623,352.890564 2036.825317,352.890564 
	C2038.713867,363.307495 2040.466187,373.420776 2042.401733,383.498871 
	C2043.798340,390.770081 2043.906982,390.749207 2052.337158,389.791962 
	C2054.342773,380.394897 2056.380859,370.846710 2058.418701,361.298523 
	C2058.782227,361.309967 2059.145752,361.321411 2059.509277,361.332855 
	C2061.062256,368.712738 2062.615234,376.092651 2064.340332,384.308105 
M1772.810669,308.495544 
	C1772.810669,313.914581 1772.810669,319.333588 1772.810669,324.739990 
	C1775.016357,324.739990 1776.611450,324.739990 1778.922607,324.739990 
	C1778.922607,316.070892 1778.922607,307.639374 1778.922607,299.207825 
	C1783.485718,306.018036 1787.403198,312.768921 1790.618774,319.839020 
	C1792.689941,324.393127 1795.378906,326.182037 1800.268311,324.545013 
	C1800.268311,312.198059 1800.268311,299.806427 1800.268311,287.075439 
	C1798.336060,287.163971 1796.774780,287.235504 1794.844482,287.323975 
	C1794.844482,296.252502 1794.844482,304.799469 1794.844482,313.346405 
	C1790.117554,306.359650 1785.998047,299.243164 1782.520874,291.825623 
	C1780.416748,287.337433 1777.609741,286.038116 1772.810669,287.673584 
	C1772.810669,294.204193 1772.810669,300.850708 1772.810669,308.495544 
M1691.349487,387.250122 
	C1690.294678,383.928101 1689.078613,380.645111 1688.260498,377.265778 
	C1687.911377,375.823364 1687.783081,373.382599 1688.597900,372.758911 
	C1693.383911,369.095184 1692.489380,363.898621 1691.680298,359.463348 
	C1691.212158,356.896912 1687.898560,353.250702 1685.496704,352.939636 
	C1678.655273,352.053589 1671.624512,352.628479 1664.610107,352.628479 
	C1664.610107,365.430145 1664.610107,377.650269 1664.610107,389.820862 
	C1666.856445,389.820862 1668.742188,389.820862 1671.041748,389.820862 
	C1671.041748,384.679718 1671.041748,379.911774 1671.041748,374.810608 
	C1672.598145,374.810608 1673.762939,374.980652 1674.860596,374.781311 
	C1679.778687,373.888275 1682.195557,375.966064 1682.873413,380.836761 
	C1683.212524,383.272888 1683.983398,385.754669 1685.109619,387.930878 
	C1685.672974,389.019348 1687.434570,389.947723 1688.724243,390.047760 
	C1689.673340,390.121399 1690.735718,388.733521 1691.349487,387.250122 
M2095.990967,322.274445 
	C2096.964844,323.179199 2097.905518,324.820648 2098.918213,324.866394 
	C2104.557129,325.121094 2110.215332,325.079437 2115.863037,324.956818 
	C2119.534180,324.877106 2123.489258,320.607666 2123.529297,316.760315 
	C2123.603516,309.614990 2123.527588,302.468262 2123.558350,295.322296 
	C2123.576904,290.986420 2120.604492,287.817627 2117.327881,287.408508 
	C2110.375977,286.540466 2103.240234,287.143707 2095.989258,287.143707 
	C2095.989258,299.051788 2095.989258,310.180267 2095.990967,322.274445 
M1820.560791,313.463959 
	C1820.560791,317.226959 1820.560791,320.989960 1820.560791,324.982422 
	C1827.530884,324.982422 1833.845947,325.049438 1840.158569,324.955811 
	C1843.618530,324.904510 1847.814575,320.809082 1847.861938,317.362671 
	C1847.967163,309.710022 1848.494995,301.981232 1847.571167,294.440247 
	C1847.242676,291.758972 1843.477905,287.854187 1840.816284,287.430084 
	C1834.374756,286.403687 1827.659058,287.096710 1820.560913,287.096710 
	C1820.560913,295.895233 1820.560913,304.185425 1820.560791,313.463959 
M2003.916382,304.501343 
	C2003.916382,311.260864 2003.916382,318.020386 2003.916382,324.676239 
	C2006.434570,324.676239 2008.335693,324.676239 2010.711426,324.676239 
	C2010.711426,319.464478 2010.711426,314.549957 2010.711426,309.409729 
	C2014.291016,309.409729 2017.379028,309.409729 2020.530151,309.409729 
	C2022.218506,314.688477 2023.860962,319.823608 2025.422729,324.706146 
	C2027.875732,324.706146 2029.798218,324.706146 2031.976318,324.706146 
	C2030.553101,320.106750 2029.023682,315.885071 2028.022095,311.541748 
	C2027.663208,309.985809 2027.986084,307.528259 2029.014893,306.526245 
	C2033.382812,302.271545 2031.745728,297.082367 2031.060547,292.457764 
	C2030.759644,290.426666 2027.324585,287.572510 2025.092041,287.355011 
	C2018.230225,286.686493 2011.261963,287.111542 2003.916382,287.111542 
	C2003.916382,292.936371 2003.916382,298.219269 2003.916382,304.501343 
M1910.452271,289.962708 
	C1910.452271,301.547546 1910.452271,313.132385 1910.452271,324.625488 
	C1912.948120,324.625488 1914.834961,324.625488 1917.138062,324.625488 
	C1917.138062,319.351501 1917.138062,314.432953 1917.138062,309.168976 
	C1918.693237,309.168976 1919.859497,309.350800 1920.948608,309.137787 
	C1925.926880,308.164124 1928.070557,310.519775 1928.959595,315.181610 
	C1929.595947,318.518250 1930.954468,321.717163 1931.881104,324.632202 
	C1934.337646,324.632202 1936.202515,324.632202 1938.430908,324.632202 
	C1936.973511,320.109222 1935.523560,316.055939 1934.410034,311.912262 
	C1934.020020,310.461029 1933.829712,307.948059 1934.622070,307.355316 
	C1938.890259,304.162231 1937.989746,299.762665 1937.977051,295.547119 
	C1937.962646,290.778046 1934.413818,287.144897 1929.729370,287.091919 
	C1924.575928,287.033630 1919.416016,286.950775 1914.271240,287.169281 
	C1912.985107,287.223938 1911.746338,288.394348 1910.452271,289.962708 
M2169.971924,352.893890 
	C2168.199951,352.893890 2166.427734,352.893890 2164.207520,352.893890 
	C2164.207520,358.284607 2164.207520,363.367157 2164.207520,368.523285 
	C2159.226318,368.523285 2154.704102,368.523285 2149.775879,368.523285 
	C2149.775879,363.040222 2149.775879,357.958801 2149.775879,352.893250 
	C2147.597900,352.893250 2145.844238,352.893250 2143.987305,352.893250 
	C2143.987305,365.397186 2143.987305,377.618317 2143.987305,389.996765 
	C2146.042480,389.996765 2147.808350,389.996765 2150.083984,389.996765 
	C2150.083984,384.886963 2150.083984,379.971588 2150.083984,374.935669 
	C2154.993164,374.935669 2159.389404,374.935669 2164.360840,374.935669 
	C2164.360840,380.107513 2164.360840,384.999023 2164.360840,389.970154 
	C2166.718994,389.970154 2168.495605,389.970154 2170.625000,389.970154 
	C2170.625000,377.635834 2170.625000,365.531586 2169.971924,352.893890 
M1778.634644,383.316620 
	C1778.634644,385.457214 1778.634644,387.597839 1778.634644,389.863037 
	C1780.938721,389.863037 1782.828491,389.863037 1784.701904,389.863037 
	C1784.701904,377.345642 1784.701904,365.146118 1784.701904,352.897308 
	C1782.602661,352.897308 1780.841553,352.897308 1778.658081,352.897308 
	C1778.658081,358.236847 1778.658081,363.334473 1778.658081,368.572998 
	C1773.699097,368.572998 1769.172729,368.572998 1764.194580,368.572998 
	C1764.194580,363.113922 1764.194580,358.025116 1764.194580,353.034821 
	C1761.846802,353.034821 1759.964355,353.034821 1758.291748,353.034821 
	C1758.291748,365.632233 1758.291748,377.836304 1758.291748,389.894440 
	C1760.452881,389.894440 1762.222412,389.894440 1764.580811,389.894440 
	C1764.580811,384.732727 1764.580811,379.847321 1764.580811,374.999573 
	C1769.572266,374.999573 1773.964233,374.999573 1778.634766,374.999573 
	C1778.634766,377.715576 1778.634766,380.033386 1778.634644,383.316620 
M1530.928711,367.942444 
	C1531.929565,371.950653 1534.264282,374.181396 1538.627930,373.984070 
	C1541.451294,373.856384 1544.319824,373.697723 1547.099731,374.067474 
	C1548.558228,374.261444 1551.018677,375.537231 1551.037476,376.369324 
	C1551.100586,379.171051 1551.240234,382.990997 1549.582642,384.599823 
	C1546.111084,387.969086 1537.679565,384.663666 1536.357422,380.125000 
	C1534.577393,380.125000 1532.829712,380.125000 1531.111450,380.125000 
	C1530.565552,387.725220 1532.767456,390.177490 1539.849854,390.190613 
	C1543.344604,390.197083 1546.840576,390.253235 1550.333618,390.175629 
	C1554.458862,390.083984 1557.704102,386.831238 1557.876709,382.647491 
	C1557.965698,380.487762 1557.927490,378.320679 1557.884766,376.158142 
	C1557.794556,371.593811 1555.072266,368.823364 1550.545166,368.733124 
	C1547.550903,368.673401 1544.499878,369.058075 1541.581177,368.584473 
	C1540.018677,368.330902 1537.440552,366.629639 1537.480835,365.672455 
	C1537.594360,362.970612 1537.994629,359.114410 1539.779663,357.881439 
	C1544.075684,354.913940 1550.416382,357.929932 1552.040527,362.752014 
	C1553.991577,362.752014 1555.894775,362.752014 1557.780273,362.752014 
	C1557.962036,355.609833 1555.143555,352.644348 1548.526489,352.631104 
	C1545.531006,352.625092 1542.464600,352.233368 1539.562134,352.753021 
	C1537.176880,353.180084 1533.729980,354.139496 1532.975098,355.845673 
	C1531.479736,359.225922 1531.518677,363.284882 1530.928711,367.942444 
M2124.081055,383.904480 
	C2124.084229,381.239532 2124.130615,378.573761 2124.080566,375.909790 
	C2123.999023,371.557037 2121.375244,368.848450 2117.084229,368.737366 
	C2114.088379,368.659790 2111.021484,369.095001 2108.117188,368.572632 
	C2106.515381,368.284485 2104.118896,366.634949 2103.947754,365.350250 
	C2103.569580,362.515076 2102.371094,358.681458 2106.781738,357.408142 
	C2112.454102,355.770508 2116.521240,357.741455 2118.740479,362.924377 
	C2120.415527,362.924377 2122.041992,362.924377 2123.638184,362.924377 
	C2124.495117,356.015991 2121.709961,352.668549 2115.250977,352.633087 
	C2111.753174,352.613892 2108.253906,352.563934 2104.758057,352.646393 
	C2100.754639,352.740814 2097.266602,356.178955 2097.127197,360.112854 
	C2097.050537,362.275452 2097.067627,364.444122 2097.122803,366.608032 
	C2097.235840,371.041443 2100.108887,373.880463 2104.562988,373.951050 
	C2107.560303,373.998566 2110.608154,373.641998 2113.536865,374.092377 
	C2115.061523,374.326813 2117.578613,375.940796 2117.560059,376.891449 
	C2117.507812,379.617432 2117.263428,383.541504 2115.516846,384.793518 
	C2111.336670,387.789856 2104.320557,384.754883 2102.569580,380.092896 
	C2100.793701,380.092896 2099.040039,380.092896 2097.315918,380.092896 
	C2096.731689,387.447815 2099.150879,390.171356 2106.015625,390.190399 
	C2108.847168,390.198242 2111.706299,389.940765 2114.504150,390.248291 
	C2119.135010,390.757324 2122.077881,388.736816 2124.081055,383.904480 
M1998.620239,352.687866 
	C1994.505615,354.915344 1992.349609,357.979919 1992.718506,363.044952 
	C1993.164062,369.161865 1992.800781,375.336121 1992.831299,381.485321 
	C1992.859131,387.113525 1995.977783,390.150330 2001.710449,390.185028 
	C2004.701904,390.203125 2007.693604,390.191864 2010.685181,390.187408 
	C2017.500366,390.177307 2020.897827,386.794281 2020.903931,380.005920 
	C2020.909058,374.188965 2020.910767,368.371979 2020.903564,362.555023 
	C2020.895508,356.063263 2017.455444,352.647919 2010.916382,352.636444 
	C2007.093872,352.629730 2003.271240,352.638367 1998.620239,352.687866 
M1462.143555,384.375793 
	C1463.233765,388.480011 1464.584595,392.178772 1470.350586,389.360474 
	C1469.042114,385.100891 1467.565552,380.863770 1466.512939,376.523804 
	C1466.192749,375.203461 1466.538574,373.069794 1467.439331,372.214722 
	C1472.027344,367.859436 1470.032349,362.457397 1469.579712,357.621216 
	C1469.409912,355.806000 1465.996460,353.073792 1463.874023,352.886444 
	C1457.000854,352.279907 1450.040649,352.659973 1443.203247,352.659973 
	C1443.203247,365.563629 1443.203247,377.796814 1443.203247,390.235718 
	C1445.352783,390.117706 1447.103638,390.021606 1449.243408,389.904175 
	C1449.243408,384.731598 1449.243408,379.965179 1449.243408,375.271454 
	C1459.185059,373.910645 1459.185791,373.910431 1461.780273,382.603027 
	C1461.875244,382.921265 1461.923950,383.253326 1462.143555,384.375793 
M1676.566772,311.014099 
	C1676.982544,309.434937 1677.017334,307.590759 1677.893188,306.331451 
	C1679.752808,303.657379 1681.514771,294.172241 1679.641602,291.785309 
	C1678.114868,289.839661 1675.737427,287.504150 1673.567139,287.317596 
	C1666.851074,286.740173 1660.053711,287.106628 1653.206421,287.106628 
	C1653.206421,300.024750 1653.206421,312.387238 1653.206421,324.733337 
	C1655.300903,324.733337 1657.062256,324.733337 1659.438477,324.733337 
	C1659.438477,319.463348 1659.438477,314.413910 1659.438477,309.150848 
	C1661.212891,309.150848 1662.399902,309.325073 1663.517334,309.120056 
	C1667.870117,308.321442 1670.211426,309.897644 1671.088379,314.390839 
	C1671.798462,318.028687 1673.270630,321.517761 1674.314209,324.789612 
	C1676.802734,324.789612 1678.608032,324.789612 1680.717896,324.789612 
	C1679.378662,320.272827 1678.114868,316.010681 1676.566772,311.014099 
M1970.951294,309.920441 
	C1973.209717,309.920441 1975.468140,309.920441 1977.913574,309.920441 
	C1977.913574,311.471863 1977.909058,312.290649 1977.914307,313.109406 
	C1977.957031,319.689423 1977.630615,320.030243 1971.241943,320.049164 
	C1970.075684,320.052612 1968.909058,320.061462 1967.743042,320.045166 
	C1964.472900,319.999420 1962.933105,318.306854 1962.945190,315.063873 
	C1962.967407,309.065918 1962.749634,303.056549 1963.082764,297.077026 
	C1963.174438,295.430389 1964.482666,293.119415 1965.887207,292.411163 
	C1970.693970,289.987183 1976.786743,292.681305 1978.744263,297.594604 
	C1980.377197,297.594604 1981.995605,297.594604 1983.575317,297.594604 
	C1984.700073,290.744049 1981.860107,287.147980 1975.466064,287.102783 
	C1972.133911,287.079224 1968.801147,287.068359 1965.469360,287.104828 
	C1960.270630,287.161743 1956.890137,290.540985 1956.860596,295.757324 
	C1956.822876,302.421631 1956.837280,309.086334 1956.855591,315.750824 
	C1956.871582,321.539062 1960.225830,324.940643 1965.931763,324.973022 
	C1969.430542,324.992859 1972.936768,325.117493 1976.426636,324.940216 
	C1980.780273,324.718964 1983.551392,321.927734 1984.169189,317.999634 
	C1984.825073,313.829407 1984.316528,309.476013 1984.316528,304.917358 
	C1981.407837,304.917358 1979.088867,304.917358 1976.769897,304.917358 
	C1974.332642,304.917358 1971.895264,304.917358 1968.852539,304.917358 
	C1969.400513,307.061432 1969.746094,308.413361 1970.951294,309.920441 
M1417.840698,287.092651 
	C1413.515381,287.092682 1409.176392,286.879425 1404.868530,287.154053 
	C1400.730469,287.417847 1398.352173,290.062317 1397.828369,294.088013 
	C1397.530396,296.378387 1397.736206,298.739777 1397.780273,301.067963 
	C1397.865845,305.588348 1400.274536,308.071716 1404.709595,308.160065 
	C1407.869141,308.223022 1411.083008,307.839935 1414.168823,308.321381 
	C1415.610962,308.546387 1417.868042,310.308838 1417.907471,311.438995 
	C1418.007568,314.304840 1419.754883,318.132690 1415.753296,319.832825 
	C1410.594482,322.024658 1404.940552,319.377045 1403.126587,314.325073 
	C1401.458130,314.325073 1399.823608,314.325073 1398.223633,314.325073 
	C1396.867798,321.389801 1399.688110,324.958923 1406.490234,324.981232 
	C1409.983765,324.992676 1413.478516,325.037384 1416.970703,324.968689 
	C1421.034546,324.888763 1424.686646,321.224152 1424.821411,317.115845 
	C1424.897705,314.789307 1424.912598,312.455139 1424.819336,310.129883 
	C1424.663086,306.238037 1421.464233,303.129456 1417.519653,303.032257 
	C1414.526978,302.958496 1411.502686,303.259888 1408.548462,302.914429 
	C1407.040405,302.738037 1404.421021,301.483948 1404.434326,300.755585 
	C1404.484741,297.976868 1404.474487,294.133911 1406.184448,292.666199 
	C1409.930664,289.450745 1417.499146,292.725159 1418.848267,297.471558 
	C1420.748291,297.471558 1422.650635,297.471558 1424.518188,297.471558 
	C1425.021362,291.615997 1424.346680,290.461121 1417.840698,287.092651 
M2154.784668,319.978760 
	C2150.881592,319.949585 2149.745605,317.664764 2149.775146,314.144836 
	C2149.849609,305.224518 2149.799561,296.303101 2149.799561,287.478119 
	C2147.181396,287.478119 2145.297119,287.478119 2143.134766,287.478119 
	C2143.134766,296.987823 2143.123291,306.114410 2143.138916,315.240936 
	C2143.149414,321.399994 2146.705566,324.967255 2152.809326,324.981781 
	C2155.968506,324.989288 2159.445557,325.813599 2162.201416,324.759064 
	C2165.226318,323.601593 2169.685303,320.876587 2169.874268,318.539551 
	C2170.710693,308.206146 2170.236084,297.766571 2170.236084,287.350037 
	C2167.843506,287.350037 2166.098633,287.350037 2163.997559,287.350037 
	C2163.997559,295.561768 2163.771484,303.526093 2164.062500,311.471497 
	C2164.343750,319.157501 2162.430664,320.522614 2154.784668,319.978760 
M1725.092163,316.930389 
	C1726.070068,321.893188 1729.407593,324.942291 1733.956421,324.977753 
	C1737.452637,325.005005 1741.262817,325.850281 1744.355591,324.733002 
	C1747.328979,323.658813 1751.571655,320.692902 1751.767334,318.275757 
	C1752.593628,308.068939 1752.117188,297.756653 1752.117188,287.348541 
	C1749.837158,287.348541 1748.110352,287.348541 1745.976196,287.348541 
	C1745.976196,296.391052 1745.899170,305.183685 1746.018311,313.973663 
	C1746.059570,317.021362 1745.139771,319.233337 1742.062012,319.925018 
	C1734.251587,321.680481 1731.669312,319.542023 1731.667358,311.516632 
	C1731.666382,307.520752 1731.667114,303.524902 1731.667114,299.529022 
	C1731.667114,295.465057 1731.667114,291.401093 1731.667114,287.378601 
	C1729.022827,287.378601 1727.267700,287.378601 1725.092285,287.378601 
	C1725.092285,297.118195 1725.092285,306.576782 1725.092163,316.930389 
M1464.372559,304.489990 
	C1464.371216,307.986450 1464.733154,311.537537 1464.219360,314.957001 
	C1463.951904,316.735779 1462.471924,319.250610 1460.966675,319.768921 
	C1453.772461,322.245911 1450.166992,319.433319 1450.162842,311.914886 
	C1450.161011,308.751404 1450.162598,305.587952 1450.162598,302.424469 
	C1450.162598,297.345032 1450.162598,292.265594 1450.162598,287.003876 
	C1447.552490,287.148193 1445.808228,287.244629 1443.850220,287.352875 
	C1443.850220,297.195526 1443.829102,306.510345 1443.858276,315.825012 
	C1443.875488,321.329315 1447.554443,324.949890 1453.081055,324.976074 
	C1456.410889,324.991852 1460.054321,325.826355 1462.984253,324.743774 
	C1466.001953,323.628754 1470.401489,320.800354 1470.592651,318.430908 
	C1471.427246,308.084991 1470.951538,297.633392 1470.951538,287.362427 
	C1468.459106,287.362427 1466.682129,287.362427 1464.372437,287.362427 
	C1464.372437,292.911621 1464.372437,298.203796 1464.372559,304.489990 
M1733.691772,378.028381 
	C1733.162842,378.316132 1732.264893,378.506989 1732.160156,378.906158 
	C1730.352539,385.790863 1730.089233,385.925385 1722.469238,385.381042 
	C1719.467773,385.166626 1717.788574,383.858215 1717.769897,380.803467 
	C1717.731201,374.487061 1717.579834,368.161407 1717.893066,361.860352 
	C1717.965820,360.397003 1719.400635,358.347168 1720.747559,357.714935 
	C1726.497314,355.016174 1731.532227,357.874573 1732.439087,364.016785 
	C1734.492920,364.016785 1736.544189,364.016785 1738.561523,364.016785 
	C1739.130615,356.116333 1735.928101,352.633331 1728.461792,352.623566 
	C1725.968384,352.620300 1723.474976,352.617157 1720.981567,352.624237 
	C1714.474609,352.642731 1711.102295,356.055542 1711.097046,362.632202 
	C1711.091919,368.948822 1711.059692,375.265747 1711.107544,381.582001 
	C1711.144409,386.456757 1714.893188,390.129059 1719.820312,390.190887 
	C1722.645630,390.226349 1725.471924,390.199219 1728.297729,390.197144 
	C1736.465210,390.191193 1739.431274,386.767853 1738.372681,378.187500 
	C1737.145630,378.133026 1735.858643,378.075897 1733.691772,378.028381 
M1888.421387,390.188019 
	C1890.534546,390.188019 1892.647705,390.188019 1895.083740,390.188019 
	C1894.938477,388.209686 1894.836670,386.823425 1894.697754,384.931305 
	C1888.975464,384.931305 1883.586304,384.931305 1878.335449,384.931305 
	C1878.335449,380.989136 1878.335449,377.588348 1878.335449,373.873779 
	C1883.431641,373.873779 1888.202271,373.873779 1893.194092,373.873779 
	C1893.194092,372.145844 1893.194092,370.746185 1893.194092,368.813385 
	C1888.062012,368.813385 1883.167603,368.813385 1878.289307,368.813385 
	C1878.289307,364.853851 1878.289307,361.434967 1878.289307,357.464844 
	C1883.948364,357.464844 1889.330811,357.464844 1894.768066,357.464844 
	C1894.768066,355.610291 1894.768066,354.315765 1894.768066,352.993835 
	C1887.042114,352.993835 1879.497070,352.993835 1871.903809,352.993835 
	C1871.903809,365.465149 1871.903809,377.575867 1871.903809,390.188019 
	C1877.204590,390.188019 1882.322388,390.188019 1888.421387,390.188019 
M1511.988647,385.271729 
	C1506.735840,385.271729 1501.483032,385.271729 1496.214722,385.271729 
	C1496.214722,381.102753 1496.214722,377.700714 1496.214722,373.989288 
	C1501.241821,373.989288 1506.006470,373.989288 1510.914307,373.989288 
	C1510.914307,372.144775 1510.914307,370.623169 1510.914307,368.727234 
	C1505.783813,368.727234 1501.023804,368.727234 1496.189453,368.727234 
	C1496.189453,364.926483 1496.189453,361.507385 1496.189453,357.529358 
	C1501.805786,357.529358 1507.189453,357.529358 1512.681396,357.529358 
	C1512.681396,355.677826 1512.681396,354.391144 1512.681396,352.972076 
	C1504.947632,352.972076 1497.404175,352.972076 1489.920654,352.972076 
	C1489.920654,365.510895 1489.920654,377.704102 1489.920654,389.926575 
	C1497.729004,389.926575 1505.151855,389.926575 1512.718506,389.926575 
	C1512.718506,388.384827 1512.718506,387.106293 1511.988647,385.271729 
M2061.832031,287.089905 
	C2060.618164,287.901428 2058.634521,288.480377 2058.308350,289.560211 
	C2054.788574,301.205414 2051.529785,312.929565 2048.157715,324.778687 
	C2050.482910,324.778687 2052.270020,324.778687 2053.983887,324.778687 
	C2057.279297,315.307648 2057.330811,315.590668 2059.958252,315.111481 
	C2067.907959,313.661621 2072.650635,316.371979 2072.700684,324.605560 
	C2075.243896,324.605560 2077.106201,324.605560 2079.220215,324.605560 
	C2076.061523,313.653015 2072.784668,303.184784 2070.104980,292.565796 
	C2069.005615,288.209259 2067.154541,286.232361 2061.832031,287.089905 
M2200.812988,287.089752 
	C2199.589111,287.885315 2197.587158,288.443481 2197.260986,289.512848 
	C2193.709717,301.156586 2190.420898,312.880371 2186.987793,324.835999 
	C2189.262695,324.835999 2191.058350,324.835999 2192.798828,324.835999 
	C2196.756348,314.313995 2196.756348,314.313995 2208.930420,315.503784 
	C2209.856445,318.519226 2210.815674,321.643005 2211.781006,324.787537 
	C2213.934326,324.787537 2215.884277,324.787537 2218.162354,324.787537 
	C2215.010986,313.894989 2211.706055,303.328003 2208.976562,292.614410 
	C2207.889160,288.346161 2206.198730,286.181976 2200.812988,287.089752 
M1640.542847,365.889954 
	C1640.046997,364.305756 1639.546265,362.722992 1639.056030,361.137054 
	C1635.913940,350.972107 1638.542725,352.626892 1627.160156,352.797791 
	C1623.639282,364.998962 1620.084351,377.317993 1616.427856,389.989441 
	C1618.890137,389.989441 1620.665161,389.989441 1622.569580,389.989441 
	C1622.921875,388.744781 1623.228271,387.654022 1623.539429,386.564606 
	C1624.355225,383.708954 1624.006470,379.845673 1628.916504,380.646912 
	C1633.087524,381.327576 1639.086670,378.079926 1639.816162,385.922852 
	C1640.255737,390.646790 1643.186157,390.882385 1647.246094,389.613708 
	C1645.092407,381.917603 1642.956055,374.283691 1640.542847,365.889954 
M1583.862427,364.396301 
	C1583.862427,362.280853 1583.862427,360.165436 1583.862427,357.526855 
	C1589.617188,357.526855 1594.848999,357.526855 1600.494629,357.526855 
	C1600.326172,355.587006 1600.206909,354.212219 1600.099976,352.981049 
	C1592.223755,352.981049 1584.815308,352.981049 1577.411011,352.981049 
	C1577.411011,365.455322 1577.411011,377.556702 1577.411011,389.897278 
	C1585.220459,389.897278 1592.773193,389.897278 1600.708130,389.897278 
	C1600.582764,388.179779 1600.482056,386.799683 1600.351807,385.013428 
	C1594.721436,385.013428 1589.465942,385.013428 1584.103760,385.013428 
	C1584.103760,381.168365 1584.103760,377.763947 1584.103760,373.834381 
	C1589.228027,373.834381 1594.122314,373.834381 1599.294189,373.834381 
	C1599.082886,371.878326 1598.932373,370.485626 1598.763916,368.926361 
	C1594.568848,368.926361 1590.739258,368.739990 1586.937622,368.985870 
	C1583.945679,369.179352 1583.640747,367.622040 1583.862427,364.396301 
M1631.254517,308.153290 
	C1632.020386,306.766296 1632.786255,305.379333 1634.101562,302.997406 
	C1627.704224,302.997406 1622.811768,302.997406 1617.992188,302.997406 
	C1617.992188,299.171326 1617.992188,295.904053 1617.992188,292.081970 
	C1623.466187,292.081970 1628.691406,292.081970 1634.244263,292.081970 
	C1634.032471,290.094879 1633.884399,288.705963 1633.754639,287.488708 
	C1625.964233,287.488708 1618.584717,287.488708 1611.261963,287.488708 
	C1611.261963,300.124207 1611.261963,312.358429 1611.261963,324.648071 
	C1619.066772,324.648071 1626.595093,324.648071 1634.436401,324.648071 
	C1634.282837,322.891754 1634.160767,321.497223 1634.004517,319.710358 
	C1628.385132,319.710358 1623.138672,319.710358 1618.077637,319.710358 
	C1618.077637,315.694824 1618.077637,312.112976 1618.077637,308.168823 
	C1622.379272,308.168823 1626.340454,308.168823 1631.254517,308.153290 
M1867.921387,304.501343 
	C1867.921387,311.248077 1867.921387,317.994812 1867.921387,324.770203 
	C1875.999634,324.770203 1883.414429,324.770203 1890.992676,324.770203 
	C1890.992676,323.137787 1890.992676,321.719604 1890.992676,319.892517 
	C1885.499268,319.892517 1880.240967,319.892517 1874.835083,319.892517 
	C1874.835083,315.896637 1874.835083,312.312683 1874.835083,308.150757 
	C1879.979370,308.150757 1884.878540,308.150757 1890.100220,308.150757 
	C1889.925293,306.157593 1889.803467,304.770477 1889.649658,303.016968 
	C1884.545410,303.016968 1879.778809,303.016968 1874.961426,303.016968 
	C1874.961426,299.242798 1874.961426,295.879242 1874.961426,292.110352 
	C1880.429077,292.110352 1885.522461,292.110352 1890.784912,292.110352 
	C1890.784912,290.300140 1890.784912,288.908844 1890.784912,287.370483 
	C1883.145264,287.370483 1875.754150,287.370483 1867.921387,287.370483 
	C1867.921387,292.930389 1867.921387,298.216278 1867.921387,304.501343 
M2274.693359,296.534241 
	C2274.693359,305.927673 2274.693359,315.321106 2274.693359,324.724274 
	C2282.835938,324.724274 2290.256592,324.724274 2297.750000,324.724274 
	C2297.750000,323.086456 2297.750000,321.699890 2297.750000,319.854004 
	C2292.089844,319.854004 2286.681396,319.854004 2281.244629,319.854004 
	C2281.244629,315.802643 2281.244629,312.220947 2281.244629,308.065186 
	C2286.368896,308.065186 2291.256348,308.065186 2296.489014,308.065186 
	C2296.300537,306.046906 2296.169678,304.643341 2296.009033,302.922821 
	C2290.870117,302.922821 2286.101562,302.922821 2281.343506,302.922821 
	C2281.343506,299.180878 2281.343506,295.805389 2281.343506,292.052307 
	C2286.958252,292.052307 2292.225830,292.052307 2297.638672,292.052307 
	C2297.638672,290.279114 2297.638672,288.901154 2297.638672,287.388367 
	C2289.954834,287.388367 2282.556396,287.388367 2274.693359,287.388367 
	C2274.693359,290.286163 2274.693359,292.915649 2274.693359,296.534241 
M2250.339111,375.475647 
	C2254.341309,371.724701 2256.988037,362.565155 2254.620361,357.978485 
	C2253.470947,355.751801 2250.716309,353.146210 2248.467529,352.921295 
	C2241.788574,352.253326 2234.999512,352.682007 2228.165527,352.682007 
	C2228.165527,365.460724 2228.165527,377.663696 2228.165527,389.939362 
	C2230.218262,389.939362 2231.969482,389.939362 2234.262451,389.939362 
	C2234.262451,385.325836 2234.262451,380.925018 2234.262451,375.946075 
	C2239.743896,375.946075 2244.689453,375.946075 2250.339111,375.475647 
M1838.477051,374.626495 
	C1843.087280,374.626495 1847.697510,374.626495 1852.719604,374.626495 
	C1852.597046,372.410004 1852.519897,371.015472 1852.417725,369.169678 
	C1847.477905,369.169678 1842.897583,369.169678 1838.170044,369.169678 
	C1838.170044,365.135315 1838.170044,361.578918 1838.170044,357.566284 
	C1843.530029,357.566284 1848.613281,357.566284 1853.755859,357.566284 
	C1853.755859,355.694031 1853.755859,354.292542 1853.755859,353.052002 
	C1846.091431,353.052002 1838.728882,353.052002 1831.395020,353.052002 
	C1831.395020,365.586700 1831.395020,377.662415 1831.395020,389.830688 
	C1833.665405,389.830688 1835.700439,389.830688 1837.977905,389.830688 
	C1837.977905,384.793427 1837.977905,380.143341 1838.477051,374.626495 
M2257.242676,290.232574 
	C2256.410400,289.183380 2255.603271,287.247559 2254.741699,287.222900 
	C2246.626953,286.990845 2238.502686,287.085022 2230.268066,287.085022 
	C2230.268066,289.032928 2230.268066,290.552948 2230.268066,292.533691 
	C2233.700195,292.533691 2236.775391,292.533691 2240.320312,292.533691 
	C2240.320312,303.564453 2240.320312,314.139160 2240.320312,324.725311 
	C2242.732910,324.725311 2244.652588,324.725311 2247.011230,324.725311 
	C2247.011230,313.885895 2247.011230,303.299988 2247.011230,293.122406 
	C2250.739014,292.352875 2253.963135,291.687286 2257.242676,290.232574 
M2203.028809,367.530243 
	C2203.028809,364.095612 2203.028809,360.660980 2203.028809,357.303497 
	C2205.489502,357.052368 2207.253662,356.872345 2208.882324,356.706116 
	C2209.931641,353.478790 2208.776611,352.498016 2205.859863,352.606842 
	C2201.699707,352.762085 2197.523682,352.781952 2193.365234,352.604156 
	C2189.925293,352.457092 2189.376709,353.920410 2190.451416,356.867432 
	C2192.287354,356.980286 2194.038086,357.087891 2195.823486,357.197632 
	C2195.823486,366.829163 2195.823486,376.073669 2195.823486,385.568176 
	C2193.804199,385.693665 2192.057861,385.802216 2190.389404,385.905945 
	C2189.541504,388.796570 2189.808594,390.371002 2193.109863,390.227356 
	C2197.434326,390.039154 2201.775879,390.086151 2206.104980,390.209717 
	C2209.811768,390.315491 2209.729980,388.500000 2208.739014,385.964386 
	C2206.771240,385.758362 2205.006836,385.573608 2203.028809,385.366516 
	C2203.028809,379.500275 2203.028809,374.011200 2203.028809,367.530243 
M1920.672607,367.506775 
	C1920.672607,362.726685 1920.672607,357.946594 1920.672607,353.022522 
	C1918.148926,353.022522 1916.130493,353.022522 1914.190063,353.022522 
	C1914.190063,365.534271 1914.190063,377.639496 1914.190063,389.883545 
	C1921.306763,389.883545 1928.182495,389.883545 1935.384888,389.883545 
	C1935.287964,388.129700 1935.209839,386.715302 1935.107788,384.868591 
	C1930.189819,384.868591 1925.601196,384.868591 1920.672607,384.868591 
	C1920.672607,379.115204 1920.672607,373.809265 1920.672607,367.506775 
M1953.759033,371.499939 
	C1953.759033,377.600555 1953.759033,383.701141 1953.759033,389.922943 
	C1961.110229,389.922943 1967.858276,389.922943 1974.726074,389.922943 
	C1974.726074,388.270264 1974.726074,386.879700 1974.726074,384.908569 
	C1969.739868,384.908569 1965.012573,384.908569 1959.905029,384.908569 
	C1959.905029,373.899048 1959.905029,363.468384 1959.905029,352.898468 
	C1957.749634,352.898468 1956.003784,352.898468 1953.759033,352.898468 
	C1953.759033,358.922272 1953.759033,364.711304 1953.759033,371.499939 
z"/>
<path fill="#060605" opacity="1.000000" stroke="none" 
	d="
M1590.036133,316.929321 
	C1590.036133,319.725708 1590.036133,322.033844 1590.036133,324.744110 
	C1588.020752,324.833221 1586.291260,324.909698 1584.163086,325.003784 
	C1584.163086,314.450348 1584.163086,304.186615 1584.163086,293.922882 
	C1583.875244,293.871063 1583.587524,293.819244 1583.299683,293.767426 
	C1580.100220,304.109467 1576.900879,314.451508 1573.684937,324.846802 
	C1571.323486,324.846802 1569.172363,324.846802 1566.270264,324.846802 
	C1563.323975,315.363800 1560.284546,305.581085 1557.245117,295.798370 
	C1556.926270,295.876709 1556.607544,295.955017 1556.288696,296.033356 
	C1556.288696,305.429810 1556.288696,314.826263 1556.288696,324.596252 
	C1554.322266,324.596252 1552.630371,324.596252 1550.708984,324.596252 
	C1550.708984,312.284119 1550.708984,300.014496 1550.708984,287.852905 
	C1551.168213,287.562286 1551.423584,287.264954 1551.697144,287.247192 
	C1560.236084,286.692657 1560.290039,286.680084 1562.820312,294.772125 
	C1565.191895,302.356537 1567.433350,309.981689 1570.661011,317.690613 
	C1572.761475,310.940704 1574.865601,304.191925 1576.957764,297.439453 
	C1577.252563,296.488098 1577.471069,295.513306 1577.754150,294.558014 
	C1580.241455,286.161896 1580.243408,286.162445 1590.036133,287.693695 
	C1590.036133,297.213898 1590.036133,306.827454 1590.036133,316.929321 
z"/>
<path fill="#060605" opacity="1.000000" stroke="none" 
	d="
M1523.895264,295.364136 
	C1521.156616,302.956451 1518.515747,310.892242 1515.870483,318.826569 
	C1515.198486,320.842010 1514.512207,322.852661 1513.850464,324.812073 
	C1511.228394,324.812073 1508.925781,324.812073 1506.458862,324.812073 
	C1503.535645,315.283142 1500.642944,305.854095 1497.750366,296.425018 
	C1497.427368,296.449585 1497.104370,296.474182 1496.781372,296.498749 
	C1496.781372,305.765533 1496.781372,315.032318 1496.781372,324.629883 
	C1494.619141,324.796356 1493.047607,324.917358 1491.117432,325.065948 
	C1491.117432,312.452606 1491.117432,300.069458 1491.117432,287.391296 
	C1494.139404,287.391296 1497.073730,287.391296 1500.763794,287.391296 
	C1503.805176,297.271881 1506.950928,307.491241 1510.527466,319.110352 
	C1513.295288,310.088531 1515.725708,302.424927 1517.990723,294.712769 
	C1520.434326,286.392303 1520.366943,286.372498 1529.941406,287.552765 
	C1529.941406,299.755432 1529.941406,312.003998 1529.941406,324.614746 
	C1528.216309,324.614746 1526.351318,324.614746 1523.991333,324.614746 
	C1523.991333,314.936981 1523.991333,305.322052 1523.895264,295.364136 
z"/>
<path fill="#090807" opacity="1.000000" stroke="none" 
	d="
M2064.254395,383.890320 
	C2062.615234,376.092651 2061.062256,368.712738 2059.509277,361.332855 
	C2059.145752,361.321411 2058.782227,361.309967 2058.418701,361.298523 
	C2056.380859,370.846710 2054.342773,380.394897 2052.337158,389.791962 
	C2043.906982,390.749207 2043.798340,390.770081 2042.401733,383.498871 
	C2040.466187,373.420776 2038.713867,363.307495 2036.825317,352.890564 
	C2038.963623,352.890564 2040.736328,352.890564 2042.979126,352.890564 
	C2044.650146,362.690338 2046.337646,372.587158 2048.025146,382.483978 
	C2048.236328,382.463593 2048.447266,382.443176 2048.658447,382.422791 
	C2050.700439,372.700562 2052.742432,362.978363 2054.765625,353.346039 
	C2063.023926,351.523865 2063.494629,351.910706 2064.954102,359.786285 
	C2066.274170,366.908997 2067.832764,373.987518 2070.427734,381.179321 
	C2072.042725,371.833344 2073.657715,362.487366 2075.314941,352.898071 
	C2077.007324,352.898071 2078.603271,352.898071 2080.757080,352.898071 
	C2078.465332,365.347137 2076.222412,377.530426 2073.938232,389.937805 
	C2071.171387,389.937805 2068.562012,389.937805 2065.606445,389.937805 
	C2065.191895,388.094482 2064.766113,386.201294 2064.254395,383.890320 
z"/>
<path fill="#0E0C0A" opacity="1.000000" stroke="none" 
	d="
M1772.810669,307.996399 
	C1772.810669,300.850708 1772.810669,294.204193 1772.810669,287.673584 
	C1777.609741,286.038116 1780.416748,287.337433 1782.520874,291.825623 
	C1785.998047,299.243164 1790.117554,306.359650 1794.844482,313.346405 
	C1794.844482,304.799469 1794.844482,296.252502 1794.844482,287.323975 
	C1796.774780,287.235504 1798.336060,287.163971 1800.268311,287.075439 
	C1800.268311,299.806427 1800.268311,312.198059 1800.268311,324.545013 
	C1795.378906,326.182037 1792.689941,324.393127 1790.618774,319.839020 
	C1787.403198,312.768921 1783.485718,306.018036 1778.922607,299.207825 
	C1778.922607,307.639374 1778.922607,316.070892 1778.922607,324.739990 
	C1776.611450,324.739990 1775.016357,324.739990 1772.810669,324.739990 
	C1772.810669,319.333588 1772.810669,313.914581 1772.810669,307.996399 
z"/>
<path fill="#0C0B09" opacity="1.000000" stroke="none" 
	d="
M1691.548584,387.623535 
	C1690.735718,388.733521 1689.673340,390.121399 1688.724243,390.047760 
	C1687.434570,389.947723 1685.672974,389.019348 1685.109619,387.930878 
	C1683.983398,385.754669 1683.212524,383.272888 1682.873413,380.836761 
	C1682.195557,375.966064 1679.778687,373.888275 1674.860596,374.781311 
	C1673.762939,374.980652 1672.598145,374.810608 1671.041748,374.810608 
	C1671.041748,379.911774 1671.041748,384.679718 1671.041748,389.820862 
	C1668.742188,389.820862 1666.856445,389.820862 1664.610107,389.820862 
	C1664.610107,377.650269 1664.610107,365.430145 1664.610107,352.628479 
	C1671.624512,352.628479 1678.655273,352.053589 1685.496704,352.939636 
	C1687.898560,353.250702 1691.212158,356.896912 1691.680298,359.463348 
	C1692.489380,363.898621 1693.383911,369.095184 1688.597900,372.758911 
	C1687.783081,373.382599 1687.911377,375.823364 1688.260498,377.265778 
	C1689.078613,380.645111 1690.294678,383.928101 1691.548584,387.623535 
M1674.592773,369.949982 
	C1675.918457,369.950012 1677.244141,369.955719 1678.569824,369.949066 
	C1684.635986,369.918610 1685.023071,369.348755 1685.252319,363.465240 
	C1685.432617,358.837433 1683.847900,356.591400 1678.964355,357.053589 
	C1676.397949,357.296539 1673.789795,357.096466 1670.895874,357.096466 
	C1670.895874,360.829742 1670.667969,363.981964 1671.022217,367.067352 
	C1671.142578,368.114288 1672.731812,368.992615 1674.592773,369.949982 
z"/>
<path fill="#0C0B09" opacity="1.000000" stroke="none" 
	d="
M2095.990234,321.791565 
	C2095.989258,310.180267 2095.989258,299.051788 2095.989258,287.143707 
	C2103.240234,287.143707 2110.375977,286.540466 2117.327881,287.408508 
	C2120.604492,287.817627 2123.576904,290.986420 2123.558350,295.322296 
	C2123.527588,302.468262 2123.603516,309.614990 2123.529297,316.760315 
	C2123.489258,320.607666 2119.534180,324.877106 2115.863037,324.956818 
	C2110.215332,325.079437 2104.557129,325.121094 2098.918213,324.866394 
	C2097.905518,324.820648 2096.964844,323.179199 2095.990234,321.791565 
M2116.908447,296.970978 
	C2116.812744,291.969574 2114.979248,291.294830 2103.056152,292.544952 
	C2103.056152,301.568085 2103.056152,310.609833 2103.056152,319.974792 
	C2106.002930,319.974792 2108.647217,319.860016 2111.278076,320.001465 
	C2115.324707,320.218994 2117.033447,318.402954 2116.939941,314.386993 
	C2116.811768,308.890961 2116.908936,303.389648 2116.908447,296.970978 
z"/>
<path fill="#090807" opacity="1.000000" stroke="none" 
	d="
M1820.560791,312.969788 
	C1820.560913,304.185425 1820.560913,295.895233 1820.560913,287.096710 
	C1827.659058,287.096710 1834.374756,286.403687 1840.816284,287.430084 
	C1843.477905,287.854187 1847.242676,291.758972 1847.571167,294.440247 
	C1848.494995,301.981232 1847.967163,309.710022 1847.861938,317.362671 
	C1847.814575,320.809082 1843.618530,324.904510 1840.158569,324.955811 
	C1833.845947,325.049438 1827.530884,324.982422 1820.560791,324.982422 
	C1820.560791,320.989960 1820.560791,317.226959 1820.560791,312.969788 
M1841.298828,311.358582 
	C1841.298096,306.538605 1841.635132,301.682007 1841.118408,296.917938 
	C1840.930786,295.187622 1838.936401,292.636047 1837.360474,292.285919 
	C1834.107788,291.563293 1830.582275,292.068298 1827.354736,292.068298 
	C1827.354736,301.804901 1827.354736,310.841858 1827.354736,319.847534 
	C1841.209839,320.363220 1841.245483,320.343384 1841.298828,311.358582 
z"/>
<path fill="#0C0A08" opacity="1.000000" stroke="none" 
	d="
M2003.916382,304.001770 
	C2003.916382,298.219269 2003.916382,292.936371 2003.916382,287.111542 
	C2011.261963,287.111542 2018.230225,286.686493 2025.092041,287.355011 
	C2027.324585,287.572510 2030.759644,290.426666 2031.060547,292.457764 
	C2031.745728,297.082367 2033.382812,302.271545 2029.014893,306.526245 
	C2027.986084,307.528259 2027.663208,309.985809 2028.022095,311.541748 
	C2029.023682,315.885071 2030.553101,320.106750 2031.976318,324.706146 
	C2029.798218,324.706146 2027.875732,324.706146 2025.422729,324.706146 
	C2023.860962,319.823608 2022.218506,314.688477 2020.530151,309.409729 
	C2017.379028,309.409729 2014.291016,309.409729 2010.711426,309.409729 
	C2010.711426,314.549957 2010.711426,319.464478 2010.711426,324.676239 
	C2008.335693,324.676239 2006.434570,324.676239 2003.916382,324.676239 
	C2003.916382,318.020386 2003.916382,311.260864 2003.916382,304.001770 
M2025.007324,295.793854 
	C2023.774780,294.518433 2022.682373,292.365997 2021.281616,292.142212 
	C2017.909302,291.603363 2014.392456,291.967621 2010.587524,291.967621 
	C2010.587524,294.438232 2010.587402,296.406097 2010.587402,298.373993 
	C2010.587402,300.312622 2010.587524,302.251282 2010.587524,304.105499 
	C2023.384399,305.587433 2025.679443,304.714600 2025.007324,295.793854 
z"/>
<path fill="#0C0B09" opacity="1.000000" stroke="none" 
	d="
M1910.468994,289.507324 
	C1911.746338,288.394348 1912.985107,287.223938 1914.271240,287.169281 
	C1919.416016,286.950775 1924.575928,287.033630 1929.729370,287.091919 
	C1934.413818,287.144897 1937.962646,290.778046 1937.977051,295.547119 
	C1937.989746,299.762665 1938.890259,304.162231 1934.622070,307.355316 
	C1933.829712,307.948059 1934.020020,310.461029 1934.410034,311.912262 
	C1935.523560,316.055939 1936.973511,320.109222 1938.430908,324.632202 
	C1936.202515,324.632202 1934.337646,324.632202 1931.881104,324.632202 
	C1930.954468,321.717163 1929.595947,318.518250 1928.959595,315.181610 
	C1928.070557,310.519775 1925.926880,308.164124 1920.948608,309.137787 
	C1919.859497,309.350800 1918.693237,309.168976 1917.138062,309.168976 
	C1917.138062,314.432953 1917.138062,319.351501 1917.138062,324.625488 
	C1914.834961,324.625488 1912.948120,324.625488 1910.452271,324.625488 
	C1910.452271,313.132385 1910.452271,301.547546 1910.468994,289.507324 
M1930.696533,302.685120 
	C1932.797974,291.406677 1931.397217,290.840271 1917.286743,292.627197 
	C1917.286743,296.539917 1917.286743,300.428497 1917.286743,305.293610 
	C1921.851562,304.573334 1925.949951,303.926697 1930.696533,302.685120 
z"/>
<path fill="#0C0B09" opacity="1.000000" stroke="none" 
	d="
M2170.298340,353.160645 
	C2170.625000,365.531586 2170.625000,377.635834 2170.625000,389.970154 
	C2168.495605,389.970154 2166.718994,389.970154 2164.360840,389.970154 
	C2164.360840,384.999023 2164.360840,380.107513 2164.360840,374.935669 
	C2159.389404,374.935669 2154.993164,374.935669 2150.083984,374.935669 
	C2150.083984,379.971588 2150.083984,384.886963 2150.083984,389.996765 
	C2147.808350,389.996765 2146.042480,389.996765 2143.987305,389.996765 
	C2143.987305,377.618317 2143.987305,365.397186 2143.987305,352.893250 
	C2145.844238,352.893250 2147.597900,352.893250 2149.775879,352.893250 
	C2149.775879,357.958801 2149.775879,363.040222 2149.775879,368.523285 
	C2154.704102,368.523285 2159.226318,368.523285 2164.207520,368.523285 
	C2164.207520,363.367157 2164.207520,358.284607 2164.207520,352.893890 
	C2166.427734,352.893890 2168.199951,352.893890 2170.298340,353.160645 
z"/>
<path fill="#050403" opacity="1.000000" stroke="none" 
	d="
M1778.634766,382.833893 
	C1778.634766,380.033386 1778.634766,377.715576 1778.634766,374.999573 
	C1773.964233,374.999573 1769.572266,374.999573 1764.580811,374.999573 
	C1764.580811,379.847321 1764.580811,384.732727 1764.580811,389.894440 
	C1762.222412,389.894440 1760.452881,389.894440 1758.291748,389.894440 
	C1758.291748,377.836304 1758.291748,365.632233 1758.291748,353.034821 
	C1759.964355,353.034821 1761.846802,353.034821 1764.194580,353.034821 
	C1764.194580,358.025116 1764.194580,363.113922 1764.194580,368.572998 
	C1769.172729,368.572998 1773.699097,368.572998 1778.658081,368.572998 
	C1778.658081,363.334473 1778.658081,358.236847 1778.658081,352.897308 
	C1780.841553,352.897308 1782.602661,352.897308 1784.701904,352.897308 
	C1784.701904,365.146118 1784.701904,377.345642 1784.701904,389.863037 
	C1782.828491,389.863037 1780.938721,389.863037 1778.634644,389.863037 
	C1778.634644,387.597839 1778.634644,385.457214 1778.634766,382.833893 
z"/>
<path fill="#080706" opacity="1.000000" stroke="none" 
	d="
M1530.926025,367.502838 
	C1531.518677,363.284882 1531.479736,359.225922 1532.975098,355.845673 
	C1533.729980,354.139496 1537.176880,353.180084 1539.562134,352.753021 
	C1542.464600,352.233368 1545.531006,352.625092 1548.526489,352.631104 
	C1555.143555,352.644348 1557.962036,355.609833 1557.780273,362.752014 
	C1555.894775,362.752014 1553.991577,362.752014 1552.040527,362.752014 
	C1550.416382,357.929932 1544.075684,354.913940 1539.779663,357.881439 
	C1537.994629,359.114410 1537.594360,362.970612 1537.480835,365.672455 
	C1537.440552,366.629639 1540.018677,368.330902 1541.581177,368.584473 
	C1544.499878,369.058075 1547.550903,368.673401 1550.545166,368.733124 
	C1555.072266,368.823364 1557.794556,371.593811 1557.884766,376.158142 
	C1557.927490,378.320679 1557.965698,380.487762 1557.876709,382.647491 
	C1557.704102,386.831238 1554.458862,390.083984 1550.333618,390.175629 
	C1546.840576,390.253235 1543.344604,390.197083 1539.849854,390.190613 
	C1532.767456,390.177490 1530.565552,387.725220 1531.111450,380.125000 
	C1532.829712,380.125000 1534.577393,380.125000 1536.357422,380.125000 
	C1537.679565,384.663666 1546.111084,387.969086 1549.582642,384.599823 
	C1551.240234,382.990997 1551.100586,379.171051 1551.037476,376.369324 
	C1551.018677,375.537231 1548.558228,374.261444 1547.099731,374.067474 
	C1544.319824,373.697723 1541.451294,373.856384 1538.627930,373.984070 
	C1534.264282,374.181396 1531.929565,371.950653 1530.926025,367.502838 
z"/>
<path fill="#080706" opacity="1.000000" stroke="none" 
	d="
M2124.046875,384.337036 
	C2122.077881,388.736816 2119.135010,390.757324 2114.504150,390.248291 
	C2111.706299,389.940765 2108.847168,390.198242 2106.015625,390.190399 
	C2099.150879,390.171356 2096.731689,387.447815 2097.315918,380.092896 
	C2099.040039,380.092896 2100.793701,380.092896 2102.569580,380.092896 
	C2104.320557,384.754883 2111.336670,387.789856 2115.516846,384.793518 
	C2117.263428,383.541504 2117.507812,379.617432 2117.560059,376.891449 
	C2117.578613,375.940796 2115.061523,374.326813 2113.536865,374.092377 
	C2110.608154,373.641998 2107.560303,373.998566 2104.562988,373.951050 
	C2100.108887,373.880463 2097.235840,371.041443 2097.122803,366.608032 
	C2097.067627,364.444122 2097.050537,362.275452 2097.127197,360.112854 
	C2097.266602,356.178955 2100.754639,352.740814 2104.758057,352.646393 
	C2108.253906,352.563934 2111.753174,352.613892 2115.250977,352.633087 
	C2121.709961,352.668549 2124.495117,356.015991 2123.638184,362.924377 
	C2122.041992,362.924377 2120.415527,362.924377 2118.740479,362.924377 
	C2116.521240,357.741455 2112.454102,355.770508 2106.781738,357.408142 
	C2102.371094,358.681458 2103.569580,362.515076 2103.947754,365.350250 
	C2104.118896,366.634949 2106.515381,368.284485 2108.117188,368.572632 
	C2111.021484,369.095001 2114.088379,368.659790 2117.084229,368.737366 
	C2121.375244,368.848450 2123.999023,371.557037 2124.080566,375.909790 
	C2124.130615,378.573761 2124.084229,381.239532 2124.046875,384.337036 
z"/>
<path fill="#060605" opacity="1.000000" stroke="none" 
	d="
M1999.034424,352.664001 
	C2003.271240,352.638367 2007.093872,352.629730 2010.916382,352.636444 
	C2017.455444,352.647919 2020.895508,356.063263 2020.903564,362.555023 
	C2020.910767,368.371979 2020.909058,374.188965 2020.903931,380.005920 
	C2020.897827,386.794281 2017.500366,390.177307 2010.685181,390.187408 
	C2007.693604,390.191864 2004.701904,390.203125 2001.710449,390.185028 
	C1995.977783,390.150330 1992.859131,387.113525 1992.831299,381.485321 
	C1992.800781,375.336121 1993.164062,369.161865 1992.718506,363.044952 
	C1992.349609,357.979919 1994.505615,354.915344 1999.034424,352.664001 
M2011.966553,384.891052 
	C2012.658691,383.820465 2013.920166,382.765564 2013.950195,381.676697 
	C2014.138550,374.853027 2014.260254,368.010162 2013.880249,361.202911 
	C2013.804810,359.851685 2011.663818,358.070251 2010.103271,357.492065 
	C2008.342407,356.839844 2006.159424,357.264099 2004.163208,357.325104 
	C2000.798218,357.427917 1998.949829,359.117157 1998.943237,362.585419 
	C1998.936523,366.083160 1998.959229,369.581024 1998.937256,373.078613 
	C1998.856079,385.985809 1997.977295,385.296265 2011.966553,384.891052 
z"/>
<path fill="#050403" opacity="1.000000" stroke="none" 
	d="
M1462.068848,383.977356 
	C1461.923950,383.253326 1461.875244,382.921265 1461.780273,382.603027 
	C1459.185791,373.910431 1459.185059,373.910645 1449.243408,375.271454 
	C1449.243408,379.965179 1449.243408,384.731598 1449.243408,389.904175 
	C1447.103638,390.021606 1445.352783,390.117706 1443.203247,390.235718 
	C1443.203247,377.796814 1443.203247,365.563629 1443.203247,352.659973 
	C1450.040649,352.659973 1457.000854,352.279907 1463.874023,352.886444 
	C1465.996460,353.073792 1469.409912,355.806000 1469.579712,357.621216 
	C1470.032349,362.457397 1472.027344,367.859436 1467.439331,372.214722 
	C1466.538574,373.069794 1466.192749,375.203461 1466.512939,376.523804 
	C1467.565552,380.863770 1469.042114,385.100891 1470.350586,389.360474 
	C1464.584595,392.178772 1463.233765,388.480011 1462.068848,383.977356 
M1449.069580,361.641205 
	C1449.069580,364.362091 1449.069580,367.083008 1449.069580,369.990509 
	C1452.521851,369.990509 1455.164673,369.863525 1457.791016,370.018066 
	C1462.619995,370.302246 1464.055542,367.879547 1464.034302,363.383972 
	C1464.012329,358.756775 1462.224121,356.635498 1457.543213,357.034576 
	C1455.904785,357.174255 1454.227417,357.207581 1452.597534,357.024658 
	C1449.692017,356.698517 1448.688232,357.986115 1449.069580,361.641205 
z"/>
<path fill="#060605" opacity="1.000000" stroke="none" 
	d="
M1676.708984,311.381317 
	C1678.114868,316.010681 1679.378662,320.272827 1680.717896,324.789612 
	C1678.608032,324.789612 1676.802734,324.789612 1674.314209,324.789612 
	C1673.270630,321.517761 1671.798462,318.028687 1671.088379,314.390839 
	C1670.211426,309.897644 1667.870117,308.321442 1663.517334,309.120056 
	C1662.399902,309.325073 1661.212891,309.150848 1659.438477,309.150848 
	C1659.438477,314.413910 1659.438477,319.463348 1659.438477,324.733337 
	C1657.062256,324.733337 1655.300903,324.733337 1653.206421,324.733337 
	C1653.206421,312.387238 1653.206421,300.024750 1653.206421,287.106628 
	C1660.053711,287.106628 1666.851074,286.740173 1673.567139,287.317596 
	C1675.737427,287.504150 1678.114868,289.839661 1679.641602,291.785309 
	C1681.514771,294.172241 1679.752808,303.657379 1677.893188,306.331451 
	C1677.017334,307.590759 1676.982544,309.434937 1676.708984,311.381317 
M1668.933960,304.713043 
	C1674.980469,304.283173 1674.103271,299.775543 1673.959595,295.904877 
	C1673.814575,291.992035 1670.928955,291.818207 1667.920898,291.911255 
	C1665.166748,291.996490 1662.407837,291.929352 1659.504395,291.929352 
	C1659.504395,296.376190 1659.504395,300.254883 1659.504395,304.715698 
	C1662.536499,304.715698 1665.300293,304.715698 1668.933960,304.713043 
z"/>
<path fill="#060605" opacity="1.000000" stroke="none" 
	d="
M1970.521484,309.842834 
	C1969.746094,308.413361 1969.400513,307.061432 1968.852539,304.917358 
	C1971.895264,304.917358 1974.332642,304.917358 1976.769897,304.917358 
	C1979.088867,304.917358 1981.407837,304.917358 1984.316528,304.917358 
	C1984.316528,309.476013 1984.825073,313.829407 1984.169189,317.999634 
	C1983.551392,321.927734 1980.780273,324.718964 1976.426636,324.940216 
	C1972.936768,325.117493 1969.430542,324.992859 1965.931763,324.973022 
	C1960.225830,324.940643 1956.871582,321.539062 1956.855591,315.750824 
	C1956.837280,309.086334 1956.822876,302.421631 1956.860596,295.757324 
	C1956.890137,290.540985 1960.270630,287.161743 1965.469360,287.104828 
	C1968.801147,287.068359 1972.133911,287.079224 1975.466064,287.102783 
	C1981.860107,287.147980 1984.700073,290.744049 1983.575317,297.594604 
	C1981.995605,297.594604 1980.377197,297.594604 1978.744263,297.594604 
	C1976.786743,292.681305 1970.693970,289.987183 1965.887207,292.411163 
	C1964.482666,293.119415 1963.174438,295.430389 1963.082764,297.077026 
	C1962.749634,303.056549 1962.967407,309.065918 1962.945190,315.063873 
	C1962.933105,318.306854 1964.472900,319.999420 1967.743042,320.045166 
	C1968.909058,320.061462 1970.075684,320.052612 1971.241943,320.049164 
	C1977.630615,320.030243 1977.957031,319.689423 1977.914307,313.109406 
	C1977.909058,312.290649 1977.913574,311.471863 1977.913574,309.920441 
	C1975.468140,309.920441 1973.209717,309.920441 1970.521484,309.842834 
z"/>
<path fill="#090807" opacity="1.000000" stroke="none" 
	d="
M1418.269775,287.100769 
	C1424.346680,290.461121 1425.021362,291.615997 1424.518188,297.471558 
	C1422.650635,297.471558 1420.748291,297.471558 1418.848267,297.471558 
	C1417.499146,292.725159 1409.930664,289.450745 1406.184448,292.666199 
	C1404.474487,294.133911 1404.484741,297.976868 1404.434326,300.755585 
	C1404.421021,301.483948 1407.040405,302.738037 1408.548462,302.914429 
	C1411.502686,303.259888 1414.526978,302.958496 1417.519653,303.032257 
	C1421.464233,303.129456 1424.663086,306.238037 1424.819336,310.129883 
	C1424.912598,312.455139 1424.897705,314.789307 1424.821411,317.115845 
	C1424.686646,321.224152 1421.034546,324.888763 1416.970703,324.968689 
	C1413.478516,325.037384 1409.983765,324.992676 1406.490234,324.981232 
	C1399.688110,324.958923 1396.867798,321.389801 1398.223633,314.325073 
	C1399.823608,314.325073 1401.458130,314.325073 1403.126587,314.325073 
	C1404.940552,319.377045 1410.594482,322.024658 1415.753296,319.832825 
	C1419.754883,318.132690 1418.007568,314.304840 1417.907471,311.438995 
	C1417.868042,310.308838 1415.610962,308.546387 1414.168823,308.321381 
	C1411.083008,307.839935 1407.869141,308.223022 1404.709595,308.160065 
	C1400.274536,308.071716 1397.865845,305.588348 1397.780273,301.067963 
	C1397.736206,298.739777 1397.530396,296.378387 1397.828369,294.088013 
	C1398.352173,290.062317 1400.730469,287.417847 1404.868530,287.154053 
	C1409.176392,286.879425 1413.515381,287.092682 1418.269775,287.100769 
z"/>
<path fill="#090807" opacity="1.000000" stroke="none" 
	d="
M2155.227051,319.979248 
	C2162.430664,320.522614 2164.343750,319.157501 2164.062500,311.471497 
	C2163.771484,303.526093 2163.997559,295.561768 2163.997559,287.350037 
	C2166.098633,287.350037 2167.843506,287.350037 2170.236084,287.350037 
	C2170.236084,297.766571 2170.710693,308.206146 2169.874268,318.539551 
	C2169.685303,320.876587 2165.226318,323.601593 2162.201416,324.759064 
	C2159.445557,325.813599 2155.968506,324.989288 2152.809326,324.981781 
	C2146.705566,324.967255 2143.149414,321.399994 2143.138916,315.240936 
	C2143.123291,306.114410 2143.134766,296.987823 2143.134766,287.478119 
	C2145.297119,287.478119 2147.181396,287.478119 2149.799561,287.478119 
	C2149.799561,296.303101 2149.849609,305.224518 2149.775146,314.144836 
	C2149.745605,317.664764 2150.881592,319.949585 2155.227051,319.979248 
z"/>
<path fill="#090807" opacity="1.000000" stroke="none" 
	d="
M1725.092285,316.482910 
	C1725.092285,306.576782 1725.092285,297.118195 1725.092285,287.378601 
	C1727.267700,287.378601 1729.022827,287.378601 1731.667114,287.378601 
	C1731.667114,291.401093 1731.667114,295.465057 1731.667114,299.529022 
	C1731.667114,303.524902 1731.666382,307.520752 1731.667358,311.516632 
	C1731.669312,319.542023 1734.251587,321.680481 1742.062012,319.925018 
	C1745.139771,319.233337 1746.059570,317.021362 1746.018311,313.973663 
	C1745.899170,305.183685 1745.976196,296.391052 1745.976196,287.348541 
	C1748.110352,287.348541 1749.837158,287.348541 1752.117188,287.348541 
	C1752.117188,297.756653 1752.593628,308.068939 1751.767334,318.275757 
	C1751.571655,320.692902 1747.328979,323.658813 1744.355591,324.733002 
	C1741.262817,325.850281 1737.452637,325.005005 1733.956421,324.977753 
	C1729.407593,324.942291 1726.070068,321.893188 1725.092285,316.482910 
z"/>
<path fill="#080706" opacity="1.000000" stroke="none" 
	d="
M1464.372559,303.992981 
	C1464.372437,298.203796 1464.372437,292.911621 1464.372437,287.362427 
	C1466.682129,287.362427 1468.459106,287.362427 1470.951538,287.362427 
	C1470.951538,297.633392 1471.427246,308.084991 1470.592651,318.430908 
	C1470.401489,320.800354 1466.001953,323.628754 1462.984253,324.743774 
	C1460.054321,325.826355 1456.410889,324.991852 1453.081055,324.976074 
	C1447.554443,324.949890 1443.875488,321.329315 1443.858276,315.825012 
	C1443.829102,306.510345 1443.850220,297.195526 1443.850220,287.352875 
	C1445.808228,287.244629 1447.552490,287.148193 1450.162598,287.003876 
	C1450.162598,292.265594 1450.162598,297.345032 1450.162598,302.424469 
	C1450.162598,305.587952 1450.161011,308.751404 1450.162842,311.914886 
	C1450.166992,319.433319 1453.772461,322.245911 1460.966675,319.768921 
	C1462.471924,319.250610 1463.951904,316.735779 1464.219360,314.957001 
	C1464.733154,311.537537 1464.371216,307.986450 1464.372559,303.992981 
z"/>
<path fill="#090807" opacity="1.000000" stroke="none" 
	d="
M1734.131592,378.023560 
	C1735.858643,378.075897 1737.145630,378.133026 1738.372681,378.187500 
	C1739.431274,386.767853 1736.465210,390.191193 1728.297729,390.197144 
	C1725.471924,390.199219 1722.645630,390.226349 1719.820312,390.190887 
	C1714.893188,390.129059 1711.144409,386.456757 1711.107544,381.582001 
	C1711.059692,375.265747 1711.091919,368.948822 1711.097046,362.632202 
	C1711.102295,356.055542 1714.474609,352.642731 1720.981567,352.624237 
	C1723.474976,352.617157 1725.968384,352.620300 1728.461792,352.623566 
	C1735.928101,352.633331 1739.130615,356.116333 1738.561523,364.016785 
	C1736.544189,364.016785 1734.492920,364.016785 1732.439087,364.016785 
	C1731.532227,357.874573 1726.497314,355.016174 1720.747559,357.714935 
	C1719.400635,358.347168 1717.965820,360.397003 1717.893066,361.860352 
	C1717.579834,368.161407 1717.731201,374.487061 1717.769897,380.803467 
	C1717.788574,383.858215 1719.467773,385.166626 1722.469238,385.381042 
	C1730.089233,385.925385 1730.352539,385.790863 1732.160156,378.906158 
	C1732.264893,378.506989 1733.162842,378.316132 1734.131592,378.023560 
z"/>
<path fill="#060605" opacity="1.000000" stroke="none" 
	d="
M1887.930786,390.188019 
	C1882.322388,390.188019 1877.204590,390.188019 1871.903809,390.188019 
	C1871.903809,377.575867 1871.903809,365.465149 1871.903809,352.993835 
	C1879.497070,352.993835 1887.042114,352.993835 1894.768066,352.993835 
	C1894.768066,354.315765 1894.768066,355.610291 1894.768066,357.464844 
	C1889.330811,357.464844 1883.948364,357.464844 1878.289307,357.464844 
	C1878.289307,361.434967 1878.289307,364.853851 1878.289307,368.813385 
	C1883.167603,368.813385 1888.062012,368.813385 1893.194092,368.813385 
	C1893.194092,370.746185 1893.194092,372.145844 1893.194092,373.873779 
	C1888.202271,373.873779 1883.431641,373.873779 1878.335449,373.873779 
	C1878.335449,377.588348 1878.335449,380.989136 1878.335449,384.931305 
	C1883.586304,384.931305 1888.975464,384.931305 1894.697754,384.931305 
	C1894.836670,386.823425 1894.938477,388.209686 1895.083740,390.188019 
	C1892.647705,390.188019 1890.534546,390.188019 1887.930786,390.188019 
z"/>
<path fill="#080706" opacity="1.000000" stroke="none" 
	d="
M1512.353516,385.549744 
	C1512.718506,387.106293 1512.718506,388.384827 1512.718506,389.926575 
	C1505.151855,389.926575 1497.729004,389.926575 1489.920654,389.926575 
	C1489.920654,377.704102 1489.920654,365.510895 1489.920654,352.972076 
	C1497.404175,352.972076 1504.947632,352.972076 1512.681396,352.972076 
	C1512.681396,354.391144 1512.681396,355.677826 1512.681396,357.529358 
	C1507.189453,357.529358 1501.805786,357.529358 1496.189453,357.529358 
	C1496.189453,361.507385 1496.189453,364.926483 1496.189453,368.727234 
	C1501.023804,368.727234 1505.783813,368.727234 1510.914307,368.727234 
	C1510.914307,370.623169 1510.914307,372.144775 1510.914307,373.989288 
	C1506.006470,373.989288 1501.241821,373.989288 1496.214722,373.989288 
	C1496.214722,377.700714 1496.214722,381.102753 1496.214722,385.271729 
	C1501.483032,385.271729 1506.735840,385.271729 1512.353516,385.549744 
z"/>
<path fill="#090807" opacity="1.000000" stroke="none" 
	d="
M2062.261230,287.089569 
	C2067.154541,286.232361 2069.005615,288.209259 2070.104980,292.565796 
	C2072.784668,303.184784 2076.061523,313.653015 2079.220215,324.605560 
	C2077.106201,324.605560 2075.243896,324.605560 2072.700684,324.605560 
	C2072.650635,316.371979 2067.907959,313.661621 2059.958252,315.111481 
	C2057.330811,315.590668 2057.279297,315.307648 2053.983887,324.778687 
	C2052.270020,324.778687 2050.482910,324.778687 2048.157715,324.778687 
	C2051.529785,312.929565 2054.788574,301.205414 2058.308350,289.560211 
	C2058.634521,288.480377 2060.618164,287.901428 2062.261230,287.089569 
M2065.925049,299.602631 
	C2065.204590,297.027222 2064.484131,294.451813 2063.451172,290.759613 
	C2061.603516,297.824554 2060.067383,303.698517 2058.459717,309.845093 
	C2062.018066,309.845093 2065.070312,309.845093 2068.566650,309.845093 
	C2067.673340,306.443085 2066.879883,303.422363 2065.925049,299.602631 
z"/>
<path fill="#090807" opacity="1.000000" stroke="none" 
	d="
M2201.241943,287.089478 
	C2206.198730,286.181976 2207.889160,288.346161 2208.976562,292.614410 
	C2211.706055,303.328003 2215.010986,313.894989 2218.162354,324.787537 
	C2215.884277,324.787537 2213.934326,324.787537 2211.781006,324.787537 
	C2210.815674,321.643005 2209.856445,318.519226 2208.930420,315.503784 
	C2196.756348,314.313995 2196.756348,314.313995 2192.798828,324.835999 
	C2191.058350,324.835999 2189.262695,324.835999 2186.987793,324.835999 
	C2190.420898,312.880371 2193.709717,301.156586 2197.260986,289.512848 
	C2197.587158,288.443481 2199.589111,287.885315 2201.241943,287.089478 
M2206.171387,310.070923 
	C2206.459473,309.427521 2207.113037,308.693298 2206.979248,308.154755 
	C2205.636719,302.755951 2204.165039,297.389343 2202.367188,290.654602 
	C2200.466797,297.912598 2198.939453,303.746124 2197.268311,310.128113 
	C2200.350098,310.128113 2202.799561,310.128113 2206.171387,310.070923 
z"/>
<path fill="#090807" opacity="1.000000" stroke="none" 
	d="
M1640.681396,366.269867 
	C1642.956055,374.283691 1645.092407,381.917603 1647.246094,389.613708 
	C1643.186157,390.882385 1640.255737,390.646790 1639.816162,385.922852 
	C1639.086670,378.079926 1633.087524,381.327576 1628.916504,380.646912 
	C1624.006470,379.845673 1624.355225,383.708954 1623.539429,386.564606 
	C1623.228271,387.654022 1622.921875,388.744781 1622.569580,389.989441 
	C1620.665161,389.989441 1618.890137,389.989441 1616.427856,389.989441 
	C1620.084351,377.317993 1623.639282,364.998962 1627.160156,352.797791 
	C1638.542725,352.626892 1635.913940,350.972107 1639.056030,361.137054 
	C1639.546265,362.722992 1640.046997,364.305756 1640.681396,366.269867 
M1627.761475,371.274719 
	C1627.445923,372.597687 1627.130371,373.920654 1626.805054,375.284515 
	C1630.528564,375.284515 1633.555542,375.284515 1637.005859,375.284515 
	C1635.256226,369.082764 1633.654175,363.404144 1632.052002,357.725525 
	C1631.772827,357.797455 1631.493530,357.869385 1631.214233,357.941315 
	C1630.131470,362.117676 1629.048828,366.294067 1627.761475,371.274719 
z"/>
<path fill="#0C0B09" opacity="1.000000" stroke="none" 
	d="
M1583.862793,364.878387 
	C1583.640747,367.622040 1583.945679,369.179352 1586.937622,368.985870 
	C1590.739258,368.739990 1594.568848,368.926361 1598.763916,368.926361 
	C1598.932373,370.485626 1599.082886,371.878326 1599.294189,373.834381 
	C1594.122314,373.834381 1589.228027,373.834381 1584.103760,373.834381 
	C1584.103760,377.763947 1584.103760,381.168365 1584.103760,385.013428 
	C1589.465942,385.013428 1594.721436,385.013428 1600.351807,385.013428 
	C1600.482056,386.799683 1600.582764,388.179779 1600.708130,389.897278 
	C1592.773193,389.897278 1585.220459,389.897278 1577.411011,389.897278 
	C1577.411011,377.556702 1577.411011,365.455322 1577.411011,352.981049 
	C1584.815308,352.981049 1592.223755,352.981049 1600.099976,352.981049 
	C1600.206909,354.212219 1600.326172,355.587006 1600.494629,357.526855 
	C1594.848999,357.526855 1589.617188,357.526855 1583.862427,357.526855 
	C1583.862427,360.165436 1583.862427,362.280853 1583.862793,364.878387 
z"/>
<path fill="#090807" opacity="1.000000" stroke="none" 
	d="
M1630.778076,308.161072 
	C1626.340454,308.168823 1622.379272,308.168823 1618.077637,308.168823 
	C1618.077637,312.112976 1618.077637,315.694824 1618.077637,319.710358 
	C1623.138672,319.710358 1628.385132,319.710358 1634.004517,319.710358 
	C1634.160767,321.497223 1634.282837,322.891754 1634.436401,324.648071 
	C1626.595093,324.648071 1619.066772,324.648071 1611.261963,324.648071 
	C1611.261963,312.358429 1611.261963,300.124207 1611.261963,287.488708 
	C1618.584717,287.488708 1625.964233,287.488708 1633.754639,287.488708 
	C1633.884399,288.705963 1634.032471,290.094879 1634.244263,292.081970 
	C1628.691406,292.081970 1623.466187,292.081970 1617.992188,292.081970 
	C1617.992188,295.904053 1617.992188,299.171326 1617.992188,302.997406 
	C1622.811768,302.997406 1627.704224,302.997406 1634.101562,302.997406 
	C1632.786255,305.379333 1632.020386,306.766296 1630.778076,308.161072 
z"/>
<path fill="#090807" opacity="1.000000" stroke="none" 
	d="
M1867.921387,304.001770 
	C1867.921387,298.216278 1867.921387,292.930389 1867.921387,287.370483 
	C1875.754150,287.370483 1883.145264,287.370483 1890.784912,287.370483 
	C1890.784912,288.908844 1890.784912,290.300140 1890.784912,292.110352 
	C1885.522461,292.110352 1880.429077,292.110352 1874.961426,292.110352 
	C1874.961426,295.879242 1874.961426,299.242798 1874.961426,303.016968 
	C1879.778809,303.016968 1884.545410,303.016968 1889.649658,303.016968 
	C1889.803467,304.770477 1889.925293,306.157593 1890.100220,308.150757 
	C1884.878540,308.150757 1879.979370,308.150757 1874.835083,308.150757 
	C1874.835083,312.312683 1874.835083,315.896637 1874.835083,319.892517 
	C1880.240967,319.892517 1885.499268,319.892517 1890.992676,319.892517 
	C1890.992676,321.719604 1890.992676,323.137787 1890.992676,324.770203 
	C1883.414429,324.770203 1875.999634,324.770203 1867.921387,324.770203 
	C1867.921387,317.994812 1867.921387,311.248077 1867.921387,304.001770 
z"/>
<path fill="#050403" opacity="1.000000" stroke="none" 
	d="
M2274.693359,296.039703 
	C2274.693359,292.915649 2274.693359,290.286163 2274.693359,287.388367 
	C2282.556396,287.388367 2289.954834,287.388367 2297.638672,287.388367 
	C2297.638672,288.901154 2297.638672,290.279114 2297.638672,292.052307 
	C2292.225830,292.052307 2286.958252,292.052307 2281.343506,292.052307 
	C2281.343506,295.805389 2281.343506,299.180878 2281.343506,302.922821 
	C2286.101562,302.922821 2290.870117,302.922821 2296.009033,302.922821 
	C2296.169678,304.643341 2296.300537,306.046906 2296.489014,308.065186 
	C2291.256348,308.065186 2286.368896,308.065186 2281.244629,308.065186 
	C2281.244629,312.220947 2281.244629,315.802643 2281.244629,319.854004 
	C2286.681396,319.854004 2292.089844,319.854004 2297.750000,319.854004 
	C2297.750000,321.699890 2297.750000,323.086456 2297.750000,324.724274 
	C2290.256592,324.724274 2282.835938,324.724274 2274.693359,324.724274 
	C2274.693359,315.321106 2274.693359,305.927673 2274.693359,296.039703 
z"/>
<path fill="#050403" opacity="1.000000" stroke="none" 
	d="
M2249.986816,375.710876 
	C2244.689453,375.946075 2239.743896,375.946075 2234.262451,375.946075 
	C2234.262451,380.925018 2234.262451,385.325836 2234.262451,389.939362 
	C2231.969482,389.939362 2230.218262,389.939362 2228.165527,389.939362 
	C2228.165527,377.663696 2228.165527,365.460724 2228.165527,352.682007 
	C2234.999512,352.682007 2241.788574,352.253326 2248.467529,352.921295 
	C2250.716309,353.146210 2253.470947,355.751801 2254.620361,357.978485 
	C2256.988037,362.565155 2254.341309,371.724701 2249.986816,375.710876 
M2243.030762,371.622833 
	C2248.315674,370.984680 2248.895020,369.817200 2248.635010,362.359802 
	C2248.484619,358.044525 2246.105225,357.050568 2242.411133,357.222717 
	C2239.811035,357.343872 2237.200684,357.246155 2234.459473,357.246155 
	C2234.459473,362.317444 2234.459473,366.709290 2234.459473,371.622864 
	C2237.233887,371.622864 2239.695801,371.622864 2243.030762,371.622833 
z"/>
<path fill="#100F0C" opacity="1.000000" stroke="none" 
	d="
M1838.227539,375.059875 
	C1837.977905,380.143341 1837.977905,384.793427 1837.977905,389.830688 
	C1835.700439,389.830688 1833.665405,389.830688 1831.395020,389.830688 
	C1831.395020,377.662415 1831.395020,365.586700 1831.395020,353.052002 
	C1838.728882,353.052002 1846.091431,353.052002 1853.755859,353.052002 
	C1853.755859,354.292542 1853.755859,355.694031 1853.755859,357.566284 
	C1848.613281,357.566284 1843.530029,357.566284 1838.170044,357.566284 
	C1838.170044,361.578918 1838.170044,365.135315 1838.170044,369.169678 
	C1842.897583,369.169678 1847.477905,369.169678 1852.417725,369.169678 
	C1852.519897,371.015472 1852.597046,372.410004 1852.719604,374.626495 
	C1847.697510,374.626495 1843.087280,374.626495 1838.227539,375.059875 
z"/>
<path fill="#0C0B09" opacity="1.000000" stroke="none" 
	d="
M2257.215088,290.627136 
	C2253.963135,291.687286 2250.739014,292.352875 2247.011230,293.122406 
	C2247.011230,303.299988 2247.011230,313.885895 2247.011230,324.725311 
	C2244.652588,324.725311 2242.732910,324.725311 2240.320312,324.725311 
	C2240.320312,314.139160 2240.320312,303.564453 2240.320312,292.533691 
	C2236.775391,292.533691 2233.700195,292.533691 2230.268066,292.533691 
	C2230.268066,290.552948 2230.268066,289.032928 2230.268066,287.085022 
	C2238.502686,287.085022 2246.626953,286.990845 2254.741699,287.222900 
	C2255.603271,287.247559 2256.410400,289.183380 2257.215088,290.627136 
z"/>
<path fill="#050403" opacity="1.000000" stroke="none" 
	d="
M2203.028809,368.026184 
	C2203.028809,374.011200 2203.028809,379.500275 2203.028809,385.366516 
	C2205.006836,385.573608 2206.771240,385.758362 2208.739014,385.964386 
	C2209.729980,388.500000 2209.811768,390.315491 2206.104980,390.209717 
	C2201.775879,390.086151 2197.434326,390.039154 2193.109863,390.227356 
	C2189.808594,390.371002 2189.541504,388.796570 2190.389404,385.905945 
	C2192.057861,385.802216 2193.804199,385.693665 2195.823486,385.568176 
	C2195.823486,376.073669 2195.823486,366.829163 2195.823486,357.197632 
	C2194.038086,357.087891 2192.287354,356.980286 2190.451416,356.867432 
	C2189.376709,353.920410 2189.925293,352.457092 2193.365234,352.604156 
	C2197.523682,352.781952 2201.699707,352.762085 2205.859863,352.606842 
	C2208.776611,352.498016 2209.931641,353.478790 2208.882324,356.706116 
	C2207.253662,356.872345 2205.489502,357.052368 2203.028809,357.303497 
	C2203.028809,360.660980 2203.028809,364.095612 2203.028809,368.026184 
z"/>
<path fill="#0C0A08" opacity="1.000000" stroke="none" 
	d="
M1920.672607,368.005066 
	C1920.672607,373.809265 1920.672607,379.115204 1920.672607,384.868591 
	C1925.601196,384.868591 1930.189819,384.868591 1935.107788,384.868591 
	C1935.209839,386.715302 1935.287964,388.129700 1935.384888,389.883545 
	C1928.182495,389.883545 1921.306763,389.883545 1914.190063,389.883545 
	C1914.190063,377.639496 1914.190063,365.534271 1914.190063,353.022522 
	C1916.130493,353.022522 1918.148926,353.022522 1920.672607,353.022522 
	C1920.672607,357.946594 1920.672607,362.726685 1920.672607,368.005066 
z"/>
<path fill="#050403" opacity="1.000000" stroke="none" 
	d="
M1953.759033,371.000122 
	C1953.759033,364.711304 1953.759033,358.922272 1953.759033,352.898468 
	C1956.003784,352.898468 1957.749634,352.898468 1959.905029,352.898468 
	C1959.905029,363.468384 1959.905029,373.899048 1959.905029,384.908569 
	C1965.012573,384.908569 1969.739868,384.908569 1974.726074,384.908569 
	C1974.726074,386.879700 1974.726074,388.270264 1974.726074,389.922943 
	C1967.858276,389.922943 1961.110229,389.922943 1953.759033,389.922943 
	C1953.759033,383.701141 1953.759033,377.600555 1953.759033,371.000122 
z"/>
<path fill="#CDB791" opacity="1.000000" stroke="none" 
	d="
M1674.121216,369.948975 
	C1672.731812,368.992615 1671.142578,368.114288 1671.022217,367.067352 
	C1670.667969,363.981964 1670.895874,360.829742 1670.895874,357.096466 
	C1673.789795,357.096466 1676.397949,357.296539 1678.964355,357.053589 
	C1683.847900,356.591400 1685.432617,358.837433 1685.252319,363.465240 
	C1685.023071,369.348755 1684.635986,369.918610 1678.569824,369.949066 
	C1677.244141,369.955719 1675.918457,369.950012 1674.121216,369.948975 
z"/>
<path fill="#CDB791" opacity="1.000000" stroke="none" 
	d="
M2116.908936,297.430786 
	C2116.908936,303.389648 2116.811768,308.890961 2116.939941,314.386993 
	C2117.033447,318.402954 2115.324707,320.218994 2111.278076,320.001465 
	C2108.647217,319.860016 2106.002930,319.974792 2103.056152,319.974792 
	C2103.056152,310.609833 2103.056152,301.568085 2103.056152,292.544952 
	C2114.979248,291.294830 2116.812744,291.969574 2116.908936,297.430786 
z"/>
<path fill="#CEB891" opacity="1.000000" stroke="none" 
	d="
M1841.298828,311.835602 
	C1841.245483,320.343384 1841.209839,320.363220 1827.354736,319.847534 
	C1827.354736,310.841858 1827.354736,301.804901 1827.354736,292.068298 
	C1830.582275,292.068298 1834.107788,291.563293 1837.360474,292.285919 
	C1838.936401,292.636047 1840.930786,295.187622 1841.118408,296.917938 
	C1841.635132,301.682007 1841.298096,306.538605 1841.298828,311.835602 
z"/>
<path fill="#CDB791" opacity="1.000000" stroke="none" 
	d="
M2025.009399,296.228088 
	C2025.679443,304.714600 2023.384399,305.587433 2010.587524,304.105499 
	C2010.587524,302.251282 2010.587402,300.312622 2010.587402,298.373993 
	C2010.587402,296.406097 2010.587524,294.438232 2010.587524,291.967621 
	C2014.392456,291.967621 2017.909302,291.603363 2021.281616,292.142212 
	C2022.682373,292.365997 2023.774780,294.518433 2025.009399,296.228088 
z"/>
<path fill="#CDB791" opacity="1.000000" stroke="none" 
	d="
M1930.372437,302.982574 
	C1925.949951,303.926697 1921.851562,304.573334 1917.286743,305.293610 
	C1917.286743,300.428497 1917.286743,296.539917 1917.286743,292.627197 
	C1931.397217,290.840271 1932.797974,291.406677 1930.372437,302.982574 
z"/>
<path fill="#CDB791" opacity="1.000000" stroke="none" 
	d="
M2011.522705,384.995544 
	C1997.977295,385.296265 1998.856079,385.985809 1998.937256,373.078613 
	C1998.959229,369.581024 1998.936523,366.083160 1998.943237,362.585419 
	C1998.949829,359.117157 2000.798218,357.427917 2004.163208,357.325104 
	C2006.159424,357.264099 2008.342407,356.839844 2010.103271,357.492065 
	C2011.663818,358.070251 2013.804810,359.851685 2013.880249,361.202911 
	C2014.260254,368.010162 2014.138550,374.853027 2013.950195,381.676697 
	C2013.920166,382.765564 2012.658691,383.820465 2011.522705,384.995544 
z"/>
<path fill="#C7B28C" opacity="1.000000" stroke="none" 
	d="
M1449.069946,361.173401 
	C1448.688232,357.986115 1449.692017,356.698517 1452.597534,357.024658 
	C1454.227417,357.207581 1455.904785,357.174255 1457.543213,357.034576 
	C1462.224121,356.635498 1464.012329,358.756775 1464.034302,363.383972 
	C1464.055542,367.879547 1462.619995,370.302246 1457.791016,370.018066 
	C1455.164673,369.863525 1452.521851,369.990509 1449.069580,369.990509 
	C1449.069580,367.083008 1449.069580,364.362091 1449.069946,361.173401 
z"/>
<path fill="#C7B28C" opacity="1.000000" stroke="none" 
	d="
M1668.499023,304.714355 
	C1665.300293,304.715698 1662.536499,304.715698 1659.504395,304.715698 
	C1659.504395,300.254883 1659.504395,296.376190 1659.504395,291.929352 
	C1662.407837,291.929352 1665.166748,291.996490 1667.920898,291.911255 
	C1670.928955,291.818207 1673.814575,291.992035 1673.959595,295.904877 
	C1674.103271,299.775543 1674.980469,304.283173 1668.499023,304.714355 
z"/>
<path fill="#C7B28C" opacity="1.000000" stroke="none" 
	d="
M2066.005859,300.002136 
	C2066.879883,303.422363 2067.673340,306.443085 2068.566650,309.845093 
	C2065.070312,309.845093 2062.018066,309.845093 2058.459717,309.845093 
	C2060.067383,303.698517 2061.603516,297.824554 2063.451172,290.759613 
	C2064.484131,294.451813 2065.204590,297.027222 2066.005859,300.002136 
z"/>
<path fill="#C7B28C" opacity="1.000000" stroke="none" 
	d="
M2205.710205,310.099518 
	C2202.799561,310.128113 2200.350098,310.128113 2197.268311,310.128113 
	C2198.939453,303.746124 2200.466797,297.912598 2202.367188,290.654602 
	C2204.165039,297.389343 2205.636719,302.755951 2206.979248,308.154755 
	C2207.113037,308.693298 2206.459473,309.427521 2205.710205,310.099518 
z"/>
<path fill="#BEAA86" opacity="1.000000" stroke="none" 
	d="
M1627.863770,370.872559 
	C1629.048828,366.294067 1630.131470,362.117676 1631.214233,357.941315 
	C1631.493530,357.869385 1631.772827,357.797455 1632.052002,357.725525 
	C1633.654175,363.404144 1635.256226,369.082764 1637.005859,375.284515 
	C1633.555542,375.284515 1630.528564,375.284515 1626.805054,375.284515 
	C1627.130371,373.920654 1627.445923,372.597687 1627.863770,370.872559 
z"/>
<path fill="#BEAA86" opacity="1.000000" stroke="none" 
	d="
M2242.594238,371.622864 
	C2239.695801,371.622864 2237.233887,371.622864 2234.459473,371.622864 
	C2234.459473,366.709290 2234.459473,362.317444 2234.459473,357.246155 
	C2237.200684,357.246155 2239.811035,357.343872 2242.411133,357.222717 
	C2246.105225,357.050568 2248.484619,358.044525 2248.635010,362.359802 
	C2248.895020,369.817200 2248.315674,370.984680 2242.594238,371.622864 
z"/>
</svg>